<svg xmlns="http://www.w3.org/2000/svg" xmlns:xlink="http://www.w3.org/1999/xlink" width="247" zoomAndPan="magnify" viewBox="0 0 185.25 234.749994" height="313" preserveAspectRatio="xMidYMid meet" version="1.0"><defs><clipPath id="e1dac41b12"><path d="M 0 0.347656 L 184.503906 0.347656 L 184.503906 234.152344 L 0 234.152344 Z M 0 0.347656 " clip-rule="nonzero"/></clipPath><clipPath id="232f70741d"><path d="M 68 92 L 177 92 L 177 198 L 68 198 Z M 68 92 " clip-rule="nonzero"/></clipPath><clipPath id="d974af685c"><path d="M 183.90625 193.324219 L 112.871094 222.296875 L 61.109375 95.386719 L 132.144531 66.414062 Z M 183.90625 193.324219 " clip-rule="nonzero"/></clipPath><clipPath id="842e92b62b"><path d="M 183.90625 193.324219 L 112.871094 222.296875 L 61.109375 95.386719 L 132.144531 66.414062 Z M 183.90625 193.324219 " clip-rule="nonzero"/></clipPath><clipPath id="9d865b8362"><path d="M 68 26 L 177 26 L 177 132 L 68 132 Z M 68 26 " clip-rule="nonzero"/></clipPath><clipPath id="040ebdbf3c"><path d="M 183.90625 127.257812 L 112.871094 156.234375 L 61.109375 29.324219 L 132.144531 0.347656 Z M 183.90625 127.257812 " clip-rule="nonzero"/></clipPath><clipPath id="44b01b839a"><path d="M 183.90625 127.257812 L 112.871094 156.234375 L 61.109375 29.324219 L 132.144531 0.347656 Z M 183.90625 127.257812 " clip-rule="nonzero"/></clipPath><clipPath id="965198a77c"><path d="M 7 104 L 115 104 L 115 210 L 7 210 Z M 7 104 " clip-rule="nonzero"/></clipPath><clipPath id="a458cb1fdc"><path d="M 122.601562 205.164062 L 51.566406 234.136719 L -0.195312 107.226562 L 70.839844 78.253906 Z M 122.601562 205.164062 " clip-rule="nonzero"/></clipPath><clipPath id="4e87ad3930"><path d="M 122.601562 205.164062 L 51.566406 234.136719 L -0.195312 107.226562 L 70.839844 78.253906 Z M 122.601562 205.164062 " clip-rule="nonzero"/></clipPath><clipPath id="4d916b3d76"><rect x="0" width="185" y="0" height="235"/></clipPath></defs><g clip-path="url(#e1dac41b12)"><g transform="matrix(1, 0, 0, 1, 0, 0.00000000000002659)"><g clip-path="url(#4d916b3d76)"><g clip-path="url(#232f70741d)"><g clip-path="url(#d974af685c)"><g clip-path="url(#842e92b62b)"><path fill="#b28551" d="M 131.40625 171.273438 C 131.59375 171.320312 131.773438 171.363281 131.953125 171.402344 C 133.734375 171.78125 136.816406 171.804688 139.445312 171.128906 C 141.402344 170.625 143.097656 169.71875 143.960938 168.382812 C 144.933594 166.871094 144.511719 165.304688 143.390625 163.988281 C 141.960938 162.304688 139.351562 161.101562 137.769531 161.101562 C 136.636719 161.097656 135.5 161.339844 134.378906 161.695312 C 132.839844 162.183594 131.332031 162.898438 129.894531 163.410156 C 128.652344 163.863281 127.242188 164.320312 126.054688 165.058594 C 125.484375 165.402344 124.902344 165.777344 124.480469 166.273438 C 121.855469 164.222656 119.273438 162.027344 116.742188 159.726562 C 116.253906 159.277344 115.765625 158.828125 115.285156 158.378906 C 116.410156 158.785156 117.617188 159.101562 118.84375 159.296875 C 121.019531 159.644531 123.257812 159.609375 125.21875 159.054688 C 126.851562 158.597656 129.410156 157.132812 130.363281 155.460938 C 131.132812 154.113281 131.085938 152.609375 129.089844 151.273438 C 128.644531 150.972656 128.136719 150.730469 127.609375 150.535156 C 126.871094 150.261719 126.085938 150.070312 125.363281 149.910156 C 122.902344 149.363281 120.695312 149.328125 118.523438 149.648438 C 116.386719 149.96875 114.28125 150.636719 111.996094 151.523438 C 111.078125 151.890625 110.113281 152.046875 109.210938 152.375 C 105.910156 148.933594 102.738281 145.335938 99.707031 141.640625 C 101.523438 142.8125 103.332031 143.628906 105.222656 144.023438 C 107.324219 144.464844 109.527344 144.390625 111.957031 143.6875 C 112.617188 143.5 114.058594 143.183594 114.980469 142.613281 C 115.636719 142.210938 116.054688 141.671875 116.125 141.046875 C 116.195312 140.445312 115.964844 139.765625 115.53125 139.097656 C 114.820312 138.003906 113.550781 136.90625 112.90625 136.34375 C 111.148438 134.773438 108.992188 134.054688 106.691406 133.847656 C 103.480469 133.566406 99.984375 134.320312 97 134.972656 C 96.371094 135.117188 95.632812 135.34375 94.941406 135.605469 C 92.324219 132.152344 89.839844 128.65625 87.507812 125.167969 C 90.238281 126.679688 94.585938 128.515625 98.488281 128.625 C 101.476562 128.707031 104.210938 127.796875 105.933594 125.101562 C 106.414062 124.375 106.429688 123.597656 106.1875 122.863281 C 105.894531 121.972656 105.15625 121.140625 104.5 120.582031 C 103.132812 119.421875 101.476562 118.675781 99.710938 118.25 C 98 117.839844 96.183594 117.742188 94.457031 117.832031 C 93.488281 117.886719 92.546875 118.0625 91.613281 118.296875 C 89.601562 118.8125 87.652344 119.652344 85.632812 120.136719 C 85.277344 120.222656 84.882812 120.390625 84.511719 120.566406 C 83.25 118.570312 82.039062 116.582031 80.886719 114.617188 C 77.773438 109.308594 75.085938 104.132812 72.789062 99.320312 C 71.671875 96.976562 70.609375 94.734375 69.703125 92.574219 C 69.585938 92.257812 69.21875 92.097656 68.886719 92.222656 C 68.554688 92.347656 68.386719 92.710938 68.507812 93.03125 C 69.273438 95.277344 70.128906 97.632812 71.160156 100.050781 C 73.265625 105.007812 75.960938 110.265625 79.050781 115.660156 C 80.144531 117.570312 81.296875 119.5 82.496094 121.4375 C 82.351562 121.550781 82.210938 122.011719 82.199219 122.035156 C 82.199219 122.035156 81.753906 123 81.753906 123 L 80.402344 126.359375 C 79.566406 128.371094 78.78125 130.363281 78.464844 132.414062 C 78.246094 133.828125 78.242188 135.273438 78.582031 136.773438 C 78.75 137.527344 79.089844 138.5625 79.667969 139.292969 C 80.171875 139.929688 80.84375 140.351562 81.6875 140.378906 C 82.664062 140.414062 83.449219 139.867188 84.011719 138.96875 C 84.867188 137.617188 85.191406 135.355469 85.308594 134.457031 C 85.621094 131.84375 85.726562 128.75 85.28125 125.804688 C 87.539062 129.253906 89.953125 132.703125 92.5 136.117188 C 92.382812 136.414062 92.257812 136.707031 92.167969 137.027344 C 92.113281 137.207031 92.082031 137.394531 92.042969 137.574219 C 91.515625 140.058594 90.976562 142.546875 90.5 145.035156 C 90.210938 146.609375 89.957031 148.257812 89.921875 149.886719 C 89.898438 151.019531 89.980469 152.144531 90.222656 153.238281 C 90.710938 155.429688 92.230469 157.453125 93.824219 157.796875 C 95.019531 158.050781 96.417969 157.597656 97.570312 155.542969 C 98.105469 154.585938 98.429688 153.585938 98.59375 152.5625 C 98.828125 151.09375 98.742188 149.578125 98.515625 148.085938 C 98.371094 147.160156 98.167969 146.238281 97.929688 145.332031 C 97.585938 144.058594 97.167969 142.808594 96.730469 141.578125 C 99.925781 145.5625 103.296875 149.441406 106.8125 153.136719 C 106.679688 153.347656 106.574219 153.589844 106.46875 153.820312 C 106.027344 154.796875 105.863281 155.992188 105.632812 156.875 C 105 159.414062 104.515625 162.535156 104.671875 165.476562 C 104.785156 167.554688 105.210938 169.542969 106.097656 171.199219 C 106.285156 171.550781 106.503906 171.890625 106.746094 172.21875 C 106.988281 172.535156 107.246094 172.832031 107.523438 173.117188 C 107.757812 173.355469 108.003906 173.582031 108.261719 173.800781 C 108.519531 174.019531 108.789062 174.226562 109.0625 174.417969 C 110.066406 175.113281 110.890625 175.289062 111.535156 175.1875 C 112.226562 175.082031 112.78125 174.675781 113.191406 174.027344 C 114.433594 172.058594 114.140625 167.261719 113.933594 165.84375 C 113.785156 164.796875 113.585938 163.757812 113.332031 162.730469 C 113.078125 161.699219 112.769531 160.679688 112.40625 159.6875 C 112.214844 159.183594 112.011719 158.667969 111.796875 158.152344 C 112.921875 159.234375 114.058594 160.296875 115.207031 161.335938 C 118.097656 163.941406 121.066406 166.398438 124.09375 168.660156 C 123.832031 169.425781 123.773438 170.25 123.660156 171.058594 C 123.429688 172.675781 123.355469 174.308594 123.449219 175.917969 C 123.519531 177.109375 123.570312 178.332031 123.707031 179.535156 C 123.800781 180.371094 123.9375 181.195312 124.144531 181.996094 C 124.414062 183.03125 124.832031 184.066406 125.425781 184.980469 C 126.035156 185.925781 126.832031 186.75 127.816406 187.335938 C 128.914062 188 130.25 188.160156 131.425781 187.828125 C 132.632812 187.484375 133.675781 186.640625 134.121094 185.289062 C 134.382812 184.511719 134.386719 183.679688 134.238281 182.851562 C 134.042969 181.765625 133.582031 180.679688 133.207031 179.765625 C 132.457031 177.921875 131.664062 176.117188 130.695312 174.410156 C 130.3125 173.730469 129.894531 173.0625 129.449219 172.417969 C 133.582031 175.128906 137.796875 177.472656 142.070312 179.34375 C 142.195312 179.480469 142.363281 179.550781 142.535156 179.5625 C 142.53125 179.582031 142.527344 179.605469 142.523438 179.621094 C 142.457031 179.921875 142.417969 180.222656 142.378906 180.523438 C 142.152344 182.339844 142.097656 184.097656 142.261719 185.816406 C 142.472656 187.992188 143.117188 190.089844 144.566406 192.167969 C 145.359375 193.277344 147.683594 194.734375 149.558594 194.898438 C 150.457031 194.976562 151.261719 194.78125 151.839844 194.269531 C 152.328125 193.839844 152.695312 193.175781 152.753906 192.167969 C 152.835938 190.816406 152.441406 189.429688 151.789062 188.101562 C 150.898438 186.292969 149.542969 184.589844 148.496094 183.226562 C 147.820312 182.359375 147.121094 181.660156 146.375 181.058594 C 148.964844 181.980469 151.574219 182.714844 154.195312 183.246094 C 156.492188 183.703125 158.800781 184.03125 161.105469 184.113281 C 161.191406 184.238281 161.285156 184.359375 161.34375 184.484375 L 161.617188 185.003906 C 161.820312 185.613281 162.074219 186.320312 162.316406 186.765625 C 162.695312 187.449219 163.132812 188.09375 163.613281 188.710938 C 164.304688 189.597656 165.078125 190.421875 165.820312 191.273438 C 166.414062 191.945312 167.007812 192.628906 167.617188 193.289062 C 168.03125 193.738281 168.449219 194.175781 168.886719 194.605469 C 169.527344 195.234375 170.28125 195.90625 171.113281 196.402344 C 171.71875 196.765625 172.363281 197.035156 173.039062 197.15625 C 173.992188 197.324219 174.832031 197.023438 175.410156 196.453125 C 175.972656 195.90625 176.296875 195.097656 176.214844 194.222656 C 176.152344 193.574219 175.902344 192.902344 175.558594 192.246094 C 175.105469 191.386719 174.496094 190.558594 174.039062 189.875 C 172.621094 187.722656 170.902344 185.910156 168.847656 184.679688 C 168.046875 184.203125 167.199219 183.808594 166.300781 183.515625 C 168.289062 183.128906 170.117188 182.414062 171.632812 181.320312 C 173.253906 180.152344 174.527344 178.546875 175.253906 176.410156 C 175.652344 175.242188 175.605469 173.382812 174.910156 172.125 C 174.355469 171.128906 173.433594 170.484375 172.082031 170.628906 C 171.382812 170.707031 170.71875 170.96875 170.101562 171.339844 C 169.269531 171.839844 168.523438 172.539062 167.890625 173.171875 C 167.363281 173.695312 166.886719 174.238281 166.445312 174.808594 C 166.003906 175.378906 165.597656 175.96875 165.214844 176.59375 C 164.558594 177.671875 163.847656 178.742188 163.183594 179.828125 C 162.894531 180.308594 162.609375 180.789062 162.34375 181.269531 C 162.097656 181.742188 161.871094 182.335938 161.769531 182.855469 C 161.710938 182.859375 161.652344 182.859375 161.59375 182.867188 C 161.171875 182.898438 160.484375 182.671875 159.902344 182.675781 C 159.789062 182.675781 159.679688 182.679688 159.578125 182.691406 C 157.910156 182.449219 156.238281 182.140625 154.570312 181.742188 C 152.054688 181.140625 149.546875 180.367188 147.054688 179.421875 C 147.359375 179.386719 147.664062 179.335938 147.964844 179.292969 C 149.089844 179.125 150.167969 178.855469 151.203125 178.441406 C 152.574219 177.898438 153.871094 177.070312 155.089844 175.726562 C 155.671875 175.085938 156.324219 174.316406 156.785156 173.484375 C 157.128906 172.859375 157.363281 172.199219 157.40625 171.527344 C 157.484375 170.363281 156.859375 169.4375 155.9375 168.875 C 155.078125 168.351562 153.964844 168.15625 153.007812 168.367188 C 151.320312 168.742188 149.949219 169.527344 148.761719 170.546875 C 146.441406 172.539062 144.738281 175.367188 142.765625 177.632812 C 139.902344 176.324219 137.066406 174.808594 134.269531 173.097656 C 133.308594 172.511719 132.355469 171.902344 131.40625 171.273438 Z M 131.40625 171.273438 " fill-opacity="1" fill-rule="evenodd"/></g></g></g><g clip-path="url(#9d865b8362)"><g clip-path="url(#040ebdbf3c)"><g clip-path="url(#44b01b839a)"><path fill="#b28551" d="M 131.40625 105.210938 C 131.59375 105.253906 131.773438 105.300781 131.953125 105.335938 C 133.734375 105.71875 136.816406 105.742188 139.445312 105.0625 C 141.402344 104.558594 143.097656 103.652344 143.960938 102.316406 C 144.933594 100.804688 144.511719 99.242188 143.390625 97.925781 C 141.960938 96.242188 139.351562 95.039062 137.769531 95.039062 C 136.636719 95.035156 135.5 95.273438 134.378906 95.632812 C 132.839844 96.121094 131.332031 96.835938 129.894531 97.347656 C 128.652344 97.796875 127.242188 98.257812 126.054688 98.992188 C 125.484375 99.339844 124.902344 99.710938 124.480469 100.207031 C 121.855469 98.15625 119.273438 95.964844 116.742188 93.660156 C 116.253906 93.210938 115.765625 92.765625 115.285156 92.3125 C 116.410156 92.722656 117.617188 93.039062 118.84375 93.234375 C 121.019531 93.578125 123.257812 93.546875 125.21875 92.992188 C 126.851562 92.535156 129.410156 91.066406 130.363281 89.398438 C 131.132812 88.050781 131.085938 86.546875 129.089844 85.207031 C 128.644531 84.910156 128.136719 84.667969 127.609375 84.46875 C 126.871094 84.195312 126.085938 84.007812 125.363281 83.847656 C 122.902344 83.296875 120.695312 83.261719 118.523438 83.585938 C 116.386719 83.902344 114.28125 84.570312 111.996094 85.457031 C 111.078125 85.828125 110.113281 85.980469 109.210938 86.308594 C 105.910156 82.871094 102.738281 79.269531 99.707031 75.578125 C 101.523438 76.75 103.332031 77.5625 105.222656 77.957031 C 107.324219 78.398438 109.527344 78.324219 111.957031 77.621094 C 112.617188 77.433594 114.058594 77.121094 114.980469 76.550781 C 115.636719 76.148438 116.054688 75.605469 116.125 74.984375 C 116.195312 74.382812 115.964844 73.699219 115.53125 73.035156 C 114.820312 71.941406 113.550781 70.839844 112.90625 70.277344 C 111.148438 68.707031 108.992188 67.988281 106.691406 67.785156 C 103.480469 67.5 99.984375 68.257812 97 68.910156 C 96.371094 69.050781 95.632812 69.277344 94.941406 69.539062 C 92.324219 66.085938 89.839844 62.589844 87.507812 59.101562 C 90.238281 60.617188 94.585938 62.453125 98.488281 62.558594 C 101.476562 62.644531 104.210938 61.734375 105.933594 59.039062 C 106.414062 58.308594 106.429688 57.53125 106.1875 56.796875 C 105.894531 55.90625 105.15625 55.074219 104.5 54.519531 C 103.132812 53.359375 101.476562 52.609375 99.710938 52.1875 C 98 51.777344 96.183594 51.679688 94.457031 51.769531 C 93.488281 51.824219 92.546875 51.996094 91.613281 52.234375 C 89.601562 52.75 87.652344 53.589844 85.632812 54.074219 C 85.277344 54.15625 84.882812 54.324219 84.511719 54.5 C 83.25 52.507812 82.039062 50.519531 80.886719 48.554688 C 77.773438 43.246094 75.085938 38.066406 72.789062 33.257812 C 71.671875 30.910156 70.609375 28.671875 69.703125 26.507812 C 69.585938 26.191406 69.21875 26.03125 68.886719 26.15625 C 68.554688 26.28125 68.386719 26.644531 68.507812 26.964844 C 69.273438 29.210938 70.128906 31.570312 71.160156 33.988281 C 73.265625 38.945312 75.960938 44.199219 79.050781 49.597656 C 80.144531 51.507812 81.296875 53.433594 82.496094 55.371094 C 82.351562 55.484375 82.210938 55.949219 82.199219 55.96875 C 82.199219 55.96875 81.753906 56.933594 81.753906 56.933594 L 80.402344 60.296875 C 79.566406 62.308594 78.78125 64.300781 78.464844 66.351562 C 78.246094 67.765625 78.242188 69.210938 78.582031 70.707031 C 78.75 71.464844 79.089844 72.5 79.667969 73.226562 C 80.171875 73.867188 80.84375 74.289062 81.6875 74.316406 C 82.664062 74.347656 83.449219 73.804688 84.011719 72.902344 C 84.867188 71.550781 85.191406 69.292969 85.308594 68.394531 C 85.621094 65.78125 85.726562 62.6875 85.28125 59.742188 C 87.539062 63.1875 89.953125 66.640625 92.5 70.050781 C 92.382812 70.351562 92.257812 70.644531 92.167969 70.960938 C 92.113281 71.144531 92.082031 71.328125 92.042969 71.511719 C 91.515625 73.996094 90.976562 76.480469 90.5 78.972656 C 90.210938 80.546875 89.957031 82.191406 89.921875 83.824219 C 89.898438 84.957031 89.980469 86.082031 90.222656 87.171875 C 90.710938 89.367188 92.230469 91.386719 93.824219 91.730469 C 95.019531 91.988281 96.417969 91.53125 97.570312 89.480469 C 98.105469 88.523438 98.429688 87.519531 98.59375 86.5 C 98.828125 85.03125 98.742188 83.511719 98.515625 82.023438 C 98.371094 81.097656 98.167969 80.175781 97.929688 79.269531 C 97.585938 77.996094 97.167969 76.742188 96.730469 75.511719 C 99.925781 79.5 103.296875 83.378906 106.8125 87.074219 C 106.679688 87.28125 106.574219 87.523438 106.46875 87.757812 C 106.027344 88.734375 105.863281 89.925781 105.632812 90.8125 C 105 93.351562 104.515625 96.46875 104.671875 99.414062 C 104.785156 101.488281 105.210938 103.476562 106.097656 105.132812 C 106.285156 105.488281 106.503906 105.828125 106.746094 106.152344 C 106.988281 106.46875 107.246094 106.769531 107.523438 107.054688 C 107.757812 107.289062 108.003906 107.519531 108.261719 107.738281 C 108.519531 107.957031 108.789062 108.164062 109.0625 108.355469 C 110.066406 109.050781 110.890625 109.222656 111.535156 109.125 C 112.226562 109.019531 112.78125 108.613281 113.191406 107.964844 C 114.433594 105.996094 114.140625 101.199219 113.933594 99.78125 C 113.785156 98.734375 113.585938 97.695312 113.332031 96.664062 C 113.078125 95.632812 112.769531 94.617188 112.40625 93.621094 C 112.214844 93.121094 112.011719 92.605469 111.796875 92.085938 C 112.921875 93.171875 114.058594 94.230469 115.207031 95.269531 C 118.097656 97.878906 121.066406 100.332031 124.09375 102.59375 C 123.832031 103.359375 123.773438 104.1875 123.660156 104.992188 C 123.429688 106.609375 123.355469 108.246094 123.449219 109.855469 C 123.519531 111.042969 123.570312 112.265625 123.707031 113.46875 C 123.800781 114.304688 123.9375 115.128906 124.144531 115.933594 C 124.414062 116.96875 124.832031 118 125.425781 118.917969 C 126.035156 119.859375 126.832031 120.683594 127.816406 121.273438 C 128.914062 121.933594 130.25 122.097656 131.425781 121.765625 C 132.632812 121.421875 133.675781 120.578125 134.121094 119.226562 C 134.382812 118.449219 134.386719 117.613281 134.238281 116.785156 C 134.042969 115.703125 133.582031 114.617188 133.207031 113.699219 C 132.457031 111.859375 131.664062 110.054688 130.695312 108.347656 C 130.3125 107.664062 129.894531 107 129.449219 106.351562 C 133.582031 109.0625 137.796875 111.410156 142.070312 113.28125 C 142.195312 113.414062 142.363281 113.488281 142.535156 113.496094 C 142.53125 113.519531 142.527344 113.539062 142.523438 113.558594 C 142.457031 113.859375 142.417969 114.160156 142.378906 114.460938 C 142.152344 116.273438 142.097656 118.035156 142.261719 119.75 C 142.472656 121.929688 143.117188 124.027344 144.566406 126.101562 C 145.359375 127.214844 147.683594 128.671875 149.558594 128.835938 C 150.457031 128.914062 151.261719 128.714844 151.839844 128.207031 C 152.328125 127.777344 152.695312 127.113281 152.753906 126.105469 C 152.835938 124.753906 152.441406 123.367188 151.789062 122.039062 C 150.898438 120.230469 149.542969 118.523438 148.496094 117.164062 C 147.820312 116.292969 147.121094 115.597656 146.375 114.992188 C 148.964844 115.917969 151.574219 116.652344 154.195312 117.179688 C 156.492188 117.636719 158.800781 117.964844 161.105469 118.050781 C 161.191406 118.175781 161.285156 118.296875 161.34375 118.421875 L 161.617188 118.9375 C 161.820312 119.550781 162.074219 120.253906 162.316406 120.699219 C 162.695312 121.382812 163.132812 122.03125 163.613281 122.644531 C 164.304688 123.53125 165.078125 124.359375 165.820312 125.210938 C 166.414062 125.882812 167.007812 126.5625 167.617188 127.222656 C 168.03125 127.675781 168.449219 128.113281 168.886719 128.539062 C 169.527344 129.171875 170.28125 129.84375 171.113281 130.335938 C 171.71875 130.699219 172.363281 130.972656 173.039062 131.089844 C 173.992188 131.261719 174.832031 130.960938 175.410156 130.386719 C 175.972656 129.839844 176.296875 129.035156 176.214844 128.15625 C 176.152344 127.507812 175.902344 126.835938 175.558594 126.183594 C 175.105469 125.324219 174.496094 124.492188 174.039062 123.808594 C 172.621094 121.65625 170.902344 119.847656 168.847656 118.617188 C 168.046875 118.140625 167.199219 117.746094 166.300781 117.453125 C 168.289062 117.066406 170.117188 116.351562 171.632812 115.257812 C 173.253906 114.085938 174.527344 112.484375 175.253906 110.34375 C 175.652344 109.179688 175.605469 107.320312 174.910156 106.0625 C 174.355469 105.0625 173.433594 104.417969 172.082031 104.566406 C 171.382812 104.640625 170.71875 104.902344 170.101562 105.273438 C 169.269531 105.773438 168.523438 106.472656 167.890625 107.105469 C 167.363281 107.628906 166.886719 108.175781 166.445312 108.746094 C 166.003906 109.3125 165.597656 109.902344 165.214844 110.527344 C 164.558594 111.605469 163.847656 112.679688 163.183594 113.765625 C 162.894531 114.242188 162.609375 114.722656 162.34375 115.207031 C 162.097656 115.675781 161.871094 116.273438 161.769531 116.792969 C 161.710938 116.796875 161.652344 116.796875 161.59375 116.800781 C 161.171875 116.832031 160.484375 116.609375 159.902344 116.609375 C 159.789062 116.613281 159.679688 116.617188 159.578125 116.628906 C 157.910156 116.386719 156.238281 116.078125 154.570312 115.679688 C 152.054688 115.078125 149.546875 114.300781 147.054688 113.355469 C 147.359375 113.320312 147.664062 113.273438 147.964844 113.230469 C 149.089844 113.0625 150.167969 112.792969 151.203125 112.378906 C 152.574219 111.832031 153.871094 111.003906 155.089844 109.664062 C 155.671875 109.023438 156.324219 108.25 156.785156 107.417969 C 157.128906 106.792969 157.363281 106.132812 157.40625 105.460938 C 157.484375 104.296875 156.859375 103.375 155.9375 102.8125 C 155.078125 102.285156 153.964844 102.09375 153.007812 102.300781 C 151.320312 102.675781 149.949219 103.464844 148.761719 104.484375 C 146.441406 106.476562 144.738281 109.300781 142.765625 111.570312 C 139.902344 110.261719 137.066406 108.746094 134.269531 107.035156 C 133.308594 106.445312 132.355469 105.835938 131.40625 105.210938 Z M 131.40625 105.210938 " fill-opacity="1" fill-rule="evenodd"/></g></g></g><g clip-path="url(#965198a77c)"><g clip-path="url(#a458cb1fdc)"><g clip-path="url(#4e87ad3930)"><path fill="#b28551" d="M 70.105469 183.113281 C 70.289062 183.160156 70.472656 183.203125 70.648438 183.242188 C 72.433594 183.621094 75.511719 183.644531 78.140625 182.96875 C 80.097656 182.464844 81.792969 181.558594 82.65625 180.222656 C 83.632812 178.710938 83.207031 177.144531 82.089844 175.828125 C 80.65625 174.144531 78.046875 172.941406 76.46875 172.941406 C 75.335938 172.9375 74.195312 173.179688 73.074219 173.535156 C 71.539062 174.023438 70.027344 174.738281 68.59375 175.25 C 67.347656 175.703125 65.941406 176.160156 64.75 176.898438 C 64.179688 177.242188 63.597656 177.617188 63.179688 178.113281 C 60.554688 176.0625 57.96875 173.867188 55.441406 171.566406 C 54.949219 171.117188 54.464844 170.667969 53.980469 170.21875 C 55.105469 170.625 56.316406 170.941406 57.542969 171.136719 C 59.71875 171.484375 61.953125 171.449219 63.914062 170.894531 C 65.550781 170.4375 68.105469 168.972656 69.0625 167.300781 C 69.832031 165.953125 69.785156 164.449219 67.789062 163.113281 C 67.34375 162.8125 66.835938 162.570312 66.304688 162.375 C 65.566406 162.101562 64.78125 161.910156 64.058594 161.75 C 61.597656 161.203125 59.394531 161.167969 57.222656 161.488281 C 55.082031 161.808594 52.976562 162.476562 50.695312 163.363281 C 49.777344 163.730469 48.8125 163.886719 47.90625 164.214844 C 44.609375 160.773438 41.433594 157.175781 38.402344 153.480469 C 40.222656 154.652344 42.03125 155.46875 43.917969 155.863281 C 46.019531 156.304688 48.222656 156.230469 50.65625 155.527344 C 51.3125 155.339844 52.757812 155.023438 53.675781 154.453125 C 54.335938 154.050781 54.753906 153.511719 54.824219 152.886719 C 54.890625 152.285156 54.660156 151.605469 54.226562 150.9375 C 53.515625 149.84375 52.246094 148.746094 51.605469 148.183594 C 49.84375 146.613281 47.6875 145.894531 45.386719 145.6875 C 42.175781 145.40625 38.683594 146.160156 35.699219 146.8125 C 35.070312 146.957031 34.328125 147.183594 33.640625 147.445312 C 31.019531 143.992188 28.535156 140.496094 26.203125 137.007812 C 28.933594 138.519531 33.285156 140.355469 37.183594 140.464844 C 40.175781 140.546875 42.90625 139.636719 44.628906 136.941406 C 45.109375 136.214844 45.125 135.4375 44.882812 134.703125 C 44.589844 133.8125 43.855469 132.980469 43.199219 132.421875 C 41.832031 131.261719 40.175781 130.515625 38.410156 130.089844 C 36.695312 129.679688 34.878906 129.582031 33.152344 129.671875 C 32.1875 129.726562 31.242188 129.902344 30.3125 130.136719 C 28.300781 130.652344 26.347656 131.492188 24.328125 131.976562 C 23.976562 132.0625 23.578125 132.230469 23.210938 132.40625 C 21.949219 130.410156 20.738281 128.421875 19.582031 126.457031 C 16.46875 121.148438 13.785156 115.972656 11.488281 111.160156 C 10.367188 108.816406 9.308594 106.574219 8.402344 104.414062 C 8.28125 104.097656 7.914062 103.9375 7.585938 104.0625 C 7.253906 104.1875 7.085938 104.550781 7.207031 104.871094 C 7.972656 107.117188 8.828125 109.472656 9.855469 111.890625 C 11.964844 116.851562 14.65625 122.105469 17.75 127.5 C 18.84375 129.410156 19.992188 131.339844 21.191406 133.277344 C 21.050781 133.390625 20.90625 133.851562 20.894531 133.875 C 20.894531 133.875 20.449219 134.839844 20.449219 134.839844 L 19.101562 138.199219 C 18.261719 140.210938 17.480469 142.203125 17.164062 144.253906 C 16.941406 145.667969 16.9375 147.113281 17.28125 148.613281 C 17.445312 149.371094 17.789062 150.402344 18.363281 151.132812 C 18.867188 151.769531 19.539062 152.191406 20.386719 152.21875 C 21.359375 152.253906 22.144531 151.707031 22.710938 150.808594 C 23.5625 149.457031 23.886719 147.195312 24.007812 146.296875 C 24.320312 143.683594 24.421875 140.589844 23.976562 137.644531 C 26.238281 141.09375 28.648438 144.542969 31.195312 147.957031 C 31.078125 148.253906 30.957031 148.546875 30.863281 148.867188 C 30.8125 149.046875 30.78125 149.234375 30.742188 149.414062 C 30.210938 151.898438 29.671875 154.386719 29.199219 156.875 C 28.90625 158.449219 28.652344 160.097656 28.617188 161.726562 C 28.597656 162.859375 28.679688 163.984375 28.917969 165.078125 C 29.40625 167.269531 30.925781 169.292969 32.519531 169.636719 C 33.714844 169.890625 35.117188 169.4375 36.265625 167.382812 C 36.800781 166.425781 37.125 165.425781 37.289062 164.402344 C 37.527344 162.933594 37.4375 161.417969 37.210938 159.925781 C 37.070312 159 36.867188 158.078125 36.625 157.171875 C 36.285156 155.898438 35.867188 154.648438 35.425781 153.417969 C 38.625 157.402344 41.996094 161.28125 45.511719 164.976562 C 45.375 165.1875 45.273438 165.429688 45.164062 165.660156 C 44.722656 166.636719 44.5625 167.832031 44.328125 168.714844 C 43.699219 171.253906 43.210938 174.375 43.367188 177.316406 C 43.480469 179.394531 43.910156 181.382812 44.792969 183.039062 C 44.984375 183.390625 45.199219 183.730469 45.445312 184.058594 C 45.683594 184.375 45.945312 184.671875 46.222656 184.957031 C 46.453125 185.195312 46.703125 185.421875 46.960938 185.640625 C 47.21875 185.859375 47.484375 186.066406 47.761719 186.257812 C 48.761719 186.953125 49.585938 187.128906 50.234375 187.027344 C 50.921875 186.921875 51.476562 186.515625 51.886719 185.867188 C 53.128906 183.898438 52.839844 179.101562 52.632812 177.683594 C 52.480469 176.636719 52.28125 175.597656 52.027344 174.570312 C 51.773438 173.539062 51.46875 172.519531 51.101562 171.527344 C 50.910156 171.023438 50.707031 170.507812 50.492188 169.992188 C 51.621094 171.074219 52.757812 172.136719 53.90625 173.175781 C 56.792969 175.78125 59.761719 178.238281 62.789062 180.5 C 62.527344 181.265625 62.472656 182.089844 62.359375 182.898438 C 62.128906 184.515625 62.050781 186.148438 62.144531 187.757812 C 62.214844 188.949219 62.265625 190.171875 62.402344 191.375 C 62.496094 192.210938 62.632812 193.035156 62.839844 193.839844 C 63.109375 194.871094 63.527344 195.90625 64.121094 196.820312 C 64.734375 197.765625 65.527344 198.589844 66.511719 199.175781 C 67.609375 199.839844 68.949219 200 70.121094 199.667969 C 71.328125 199.324219 72.371094 198.480469 72.816406 197.128906 C 73.082031 196.351562 73.082031 195.519531 72.933594 194.691406 C 72.738281 193.605469 72.277344 192.519531 71.90625 191.605469 C 71.152344 189.761719 70.363281 187.957031 69.394531 186.25 C 69.007812 185.570312 68.59375 184.902344 68.148438 184.257812 C 72.277344 186.96875 76.492188 189.3125 80.769531 191.183594 C 80.894531 191.320312 81.058594 191.390625 81.230469 191.402344 C 81.226562 191.421875 81.226562 191.445312 81.21875 191.460938 C 81.152344 191.761719 81.113281 192.0625 81.074219 192.363281 C 80.847656 194.179688 80.792969 195.9375 80.960938 197.65625 C 81.167969 199.832031 81.8125 201.933594 83.261719 204.007812 C 84.054688 205.117188 86.382812 206.574219 88.257812 206.738281 C 89.15625 206.816406 89.957031 206.621094 90.539062 206.109375 C 91.023438 205.679688 91.390625 205.015625 91.453125 204.007812 C 91.535156 202.65625 91.136719 201.269531 90.484375 199.941406 C 89.59375 198.132812 88.238281 196.429688 87.191406 195.066406 C 86.519531 194.199219 85.820312 193.5 85.070312 192.898438 C 87.664062 193.820312 90.269531 194.554688 92.894531 195.085938 C 95.1875 195.542969 97.496094 195.871094 99.800781 195.953125 C 99.886719 196.078125 99.980469 196.199219 100.039062 196.324219 L 100.3125 196.84375 C 100.519531 197.453125 100.769531 198.160156 101.015625 198.605469 C 101.394531 199.289062 101.832031 199.933594 102.308594 200.550781 C 103 201.4375 103.777344 202.261719 104.519531 203.113281 C 105.109375 203.785156 105.703125 204.46875 106.3125 205.128906 C 106.726562 205.578125 107.148438 206.015625 107.582031 206.445312 C 108.226562 207.074219 108.980469 207.746094 109.8125 208.242188 C 110.417969 208.605469 111.0625 208.875 111.738281 208.996094 C 112.6875 209.164062 113.527344 208.863281 114.105469 208.292969 C 114.667969 207.746094 114.992188 206.9375 114.910156 206.0625 C 114.851562 205.414062 114.597656 204.742188 114.253906 204.085938 C 113.800781 203.226562 113.191406 202.398438 112.738281 201.714844 C 111.316406 199.5625 109.597656 197.75 107.542969 196.519531 C 106.746094 196.042969 105.894531 195.652344 105 195.355469 C 106.984375 194.972656 108.8125 194.253906 110.332031 193.160156 C 111.949219 191.992188 113.222656 190.386719 113.949219 188.25 C 114.347656 187.082031 114.304688 185.222656 113.605469 183.964844 C 113.050781 182.96875 112.132812 182.324219 110.78125 182.46875 C 110.082031 182.546875 109.414062 182.808594 108.796875 183.179688 C 107.964844 183.679688 107.21875 184.378906 106.585938 185.011719 C 106.0625 185.535156 105.582031 186.078125 105.140625 186.648438 C 104.699219 187.21875 104.292969 187.808594 103.914062 188.433594 C 103.253906 189.511719 102.546875 190.582031 101.882812 191.667969 C 101.589844 192.148438 101.304688 192.628906 101.039062 193.109375 C 100.792969 193.582031 100.566406 194.175781 100.46875 194.695312 C 100.410156 194.699219 100.347656 194.699219 100.289062 194.707031 C 99.867188 194.738281 99.179688 194.511719 98.601562 194.515625 C 98.488281 194.515625 98.378906 194.519531 98.277344 194.53125 C 96.605469 194.289062 94.9375 193.980469 93.269531 193.582031 C 90.753906 192.980469 88.246094 192.207031 85.75 191.261719 C 86.058594 191.226562 86.359375 191.175781 86.660156 191.132812 C 87.785156 190.964844 88.863281 190.695312 89.898438 190.28125 C 91.273438 189.738281 92.570312 188.910156 93.789062 187.566406 C 94.367188 186.925781 95.023438 186.15625 95.480469 185.324219 C 95.828125 184.699219 96.0625 184.039062 96.105469 183.367188 C 96.179688 182.203125 95.554688 181.277344 94.636719 180.714844 C 93.777344 180.191406 92.660156 179.996094 91.707031 180.207031 C 90.015625 180.582031 88.648438 181.367188 87.460938 182.386719 C 85.136719 184.378906 83.4375 187.207031 81.460938 189.472656 C 78.597656 188.164062 75.761719 186.648438 72.964844 184.9375 C 72.007812 184.351562 71.050781 183.742188 70.105469 183.113281 Z M 70.105469 183.113281 " fill-opacity="1" fill-rule="evenodd"/></g></g></g></g></g></g></svg>