<svg xmlns="http://www.w3.org/2000/svg" xmlns:xlink="http://www.w3.org/1999/xlink" width="334" zoomAndPan="magnify" viewBox="0 0 250.5 167.999997" height="224" preserveAspectRatio="xMidYMid meet" version="1.0"><defs><clipPath id="c67323ad80"><path d="M 36 59 L 167 59 L 167 143 L 36 143 Z M 36 59 " clip-rule="nonzero"/></clipPath><clipPath id="f467bd6a32"><path d="M 37.015625 144.816406 L 29.550781 68.835938 L 165.871094 55.449219 L 173.335938 131.429688 Z M 37.015625 144.816406 " clip-rule="nonzero"/></clipPath><clipPath id="723bc404f2"><path d="M 37.015625 144.816406 L 29.550781 68.835938 L 165.871094 55.449219 L 173.335938 131.429688 Z M 37.015625 144.816406 " clip-rule="nonzero"/></clipPath><clipPath id="bc6bd62728"><path d="M 105 85 L 249 85 L 249 154 L 105 154 Z M 105 85 " clip-rule="nonzero"/></clipPath><clipPath id="85bf8563b2"><path d="M 103.949219 150.53125 L 113.253906 74.75 L 249.210938 91.445312 L 239.90625 167.222656 Z M 103.949219 150.53125 " clip-rule="nonzero"/></clipPath><clipPath id="ff7bcab25f"><path d="M 103.949219 150.53125 L 113.253906 74.75 L 249.210938 91.445312 L 239.90625 167.222656 Z M 103.949219 150.53125 " clip-rule="nonzero"/></clipPath><clipPath id="ad6dcc5a94"><path d="M 11 7 L 137 7 L 137 96 L 11 96 Z M 11 7 " clip-rule="nonzero"/></clipPath><clipPath id="223e13b607"><path d="M 13.589844 99.957031 L 0.0585938 24.820312 L 134.867188 0.539062 L 148.398438 75.679688 Z M 13.589844 99.957031 " clip-rule="nonzero"/></clipPath><clipPath id="d20cdab3e9"><path d="M 13.589844 99.957031 L 0.0585938 24.820312 L 134.867188 0.539062 L 148.398438 75.679688 Z M 13.589844 99.957031 " clip-rule="nonzero"/></clipPath></defs><g clip-path="url(#c67323ad80)"><g clip-path="url(#f467bd6a32)"><g clip-path="url(#723bc404f2)"><path fill="#b28551" d="M 73.199219 100.703125 C 73.105469 100.867188 73.007812 101.03125 72.921875 101.1875 C 72.046875 102.792969 71.144531 105.746094 71.042969 108.464844 C 70.96875 110.488281 71.351562 112.375 72.390625 113.585938 C 73.5625 114.953125 75.1875 114.996094 76.769531 114.296875 C 78.796875 113.402344 80.699219 111.242188 81.148438 109.722656 C 81.476562 108.636719 81.570312 107.476562 81.546875 106.292969 C 81.519531 104.679688 81.265625 103.023438 81.183594 101.5 C 81.105469 100.175781 81.066406 98.691406 80.703125 97.339844 C 80.53125 96.695312 80.339844 96.027344 79.984375 95.484375 C 82.703125 93.546875 85.546875 91.695312 88.484375 89.921875 C 89.054688 89.578125 89.625 89.242188 90.195312 88.90625 C 89.480469 89.871094 88.832031 90.941406 88.292969 92.0625 C 87.339844 94.054688 86.730469 96.210938 86.703125 98.253906 C 86.675781 99.953125 87.355469 102.828125 88.683594 104.222656 C 89.757812 105.347656 91.214844 105.734375 93.070312 104.199219 C 93.484375 103.855469 93.863281 103.4375 94.203125 102.984375 C 94.679688 102.355469 95.085938 101.65625 95.445312 101.007812 C 96.675781 98.800781 97.339844 96.691406 97.652344 94.515625 C 97.957031 92.371094 97.917969 90.15625 97.71875 87.710938 C 97.628906 86.722656 97.753906 85.753906 97.699219 84.789062 C 101.945312 82.605469 106.308594 80.585938 110.722656 78.730469 C 109.078125 80.144531 107.777344 81.648438 106.859375 83.347656 C 105.835938 85.242188 105.277344 87.378906 105.253906 89.914062 C 105.25 90.597656 105.136719 92.074219 105.421875 93.121094 C 105.621094 93.871094 106.019531 94.425781 106.597656 94.671875 C 107.15625 94.910156 107.875 94.882812 108.640625 94.65625 C 109.894531 94.285156 111.3125 93.378906 112.039062 92.925781 C 114.046875 91.683594 115.355469 89.820312 116.210938 87.667969 C 117.398438 84.664062 117.671875 81.09375 117.898438 78.039062 C 117.941406 77.394531 117.9375 76.621094 117.882812 75.882812 C 121.945312 74.355469 126.015625 72.96875 130.03125 71.726562 C 127.796875 73.914062 124.789062 77.566406 123.574219 81.28125 C 122.636719 84.132812 122.730469 87.015625 124.824219 89.441406 C 125.390625 90.109375 126.128906 90.347656 126.90625 90.324219 C 127.84375 90.300781 128.855469 89.828125 129.574219 89.359375 C 131.082031 88.378906 132.273438 87 133.183594 85.425781 C 134.066406 83.898438 134.683594 82.179688 135.089844 80.496094 C 135.3125 79.554688 135.414062 78.597656 135.457031 77.636719 C 135.535156 75.554688 135.285156 73.441406 135.398438 71.363281 C 135.417969 71 135.371094 70.574219 135.308594 70.167969 C 137.582031 69.527344 139.839844 68.929688 142.058594 68.386719 C 148.042969 66.910156 153.785156 65.8125 159.0625 64.984375 C 161.636719 64.578125 164.089844 64.199219 166.425781 63.949219 C 166.761719 63.925781 167.019531 63.617188 166.996094 63.265625 C 166.96875 62.910156 166.667969 62.644531 166.328125 62.671875 C 163.953125 62.761719 161.445312 62.910156 158.828125 63.207031 C 153.464844 63.8125 147.648438 64.898438 141.582031 66.324219 C 139.433594 66.828125 137.25 67.382812 135.046875 67.980469 C 134.980469 67.8125 134.574219 67.542969 134.558594 67.523438 C 134.558594 67.523438 133.761719 66.820312 133.761719 66.820312 L 130.917969 64.5625 C 129.226562 63.183594 127.535156 61.863281 125.65625 60.972656 C 124.363281 60.355469 122.976562 59.9375 121.4375 59.835938 C 120.664062 59.78125 119.574219 59.8125 118.707031 60.160156 C 117.953125 60.457031 117.355469 60.984375 117.085938 61.789062 C 116.777344 62.714844 117.074219 63.625 117.777344 64.425781 C 118.832031 65.632812 120.910156 66.589844 121.738281 66.960938 C 124.160156 68.007812 127.101562 68.992188 130.054688 69.40625 C 126.097656 70.589844 122.09375 71.921875 118.089844 73.390625 C 117.835938 73.191406 117.589844 72.992188 117.3125 72.8125 C 117.152344 72.707031 116.980469 72.625 116.820312 72.535156 C 114.585938 71.316406 112.351562 70.089844 110.09375 68.921875 C 108.667969 68.191406 107.160156 67.476562 105.601562 66.976562 C 104.519531 66.632812 103.414062 66.386719 102.300781 66.304688 C 100.054688 66.148438 97.675781 67.03125 96.890625 68.464844 C 96.300781 69.539062 96.339844 71.011719 97.984375 72.703125 C 98.75 73.492188 99.617188 74.089844 100.550781 74.539062 C 101.894531 75.1875 103.378906 75.535156 104.875 75.746094 C 105.804688 75.871094 106.746094 75.941406 107.683594 75.96875 C 109.007812 76.003906 110.328125 75.960938 111.636719 75.890625 C 106.894531 77.820312 102.203125 79.949219 97.652344 82.269531 C 97.488281 82.082031 97.285156 81.914062 97.089844 81.742188 C 96.28125 81.039062 95.179688 80.542969 94.398438 80.066406 C 92.140625 78.734375 89.28125 77.375 86.410156 76.683594 C 84.386719 76.199219 82.355469 76.042969 80.507812 76.417969 C 80.117188 76.496094 79.726562 76.609375 79.34375 76.75 C 78.972656 76.890625 78.613281 77.054688 78.257812 77.242188 C 77.964844 77.394531 77.675781 77.566406 77.390625 77.753906 C 77.105469 77.9375 76.832031 78.136719 76.570312 78.347656 C 75.613281 79.109375 75.210938 79.851562 75.121094 80.5 C 75.027344 81.191406 75.257812 81.839844 75.761719 82.421875 C 77.300781 84.175781 81.988281 85.269531 83.410156 85.476562 C 84.460938 85.628906 85.511719 85.738281 86.574219 85.789062 C 87.636719 85.839844 88.703125 85.835938 89.761719 85.769531 C 90.296875 85.730469 90.851562 85.679688 91.410156 85.621094 C 90.046875 86.394531 88.703125 87.183594 87.378906 87.988281 C 84.046875 90.015625 80.839844 92.164062 77.804688 94.425781 C 77.144531 93.957031 76.363281 93.664062 75.625 93.324219 C 74.136719 92.640625 72.589844 92.101562 71.015625 91.730469 C 69.851562 91.460938 68.664062 91.15625 67.46875 90.945312 C 66.640625 90.796875 65.808594 90.691406 64.976562 90.660156 C 63.910156 90.625 62.796875 90.730469 61.746094 91.039062 C 60.664062 91.355469 59.644531 91.882812 58.800781 92.660156 C 57.851562 93.527344 57.3125 94.765625 57.296875 95.984375 C 57.28125 97.242188 57.792969 98.484375 58.964844 99.300781 C 59.632812 99.777344 60.4375 100.015625 61.273438 100.109375 C 62.371094 100.234375 63.546875 100.101562 64.53125 100.003906 C 66.515625 99.808594 68.472656 99.566406 70.390625 99.125 C 71.15625 98.949219 71.914062 98.738281 72.664062 98.496094 C 68.878906 101.691406 65.421875 105.066406 62.398438 108.636719 C 62.234375 108.71875 62.117188 108.859375 62.058594 109.019531 C 62.039062 109.011719 62.019531 109 62.007812 108.992188 C 61.734375 108.839844 61.457031 108.71875 61.179688 108.59375 C 59.5 107.859375 57.828125 107.300781 56.132812 106.96875 C 53.980469 106.550781 51.78125 106.566406 49.371094 107.367188 C 48.078125 107.808594 46.015625 109.628906 45.320312 111.378906 C 44.988281 112.222656 44.949219 113.050781 45.273438 113.75 C 45.546875 114.34375 46.078125 114.886719 47.03125 115.230469 C 48.304688 115.695312 49.75 115.710938 51.210938 115.464844 C 53.203125 115.125 55.226562 114.3125 56.835938 113.695312 C 57.863281 113.296875 58.730469 112.824219 59.527344 112.28125 C 57.894531 114.503906 56.445312 116.800781 55.1875 119.164062 C 54.09375 121.242188 53.117188 123.363281 52.378906 125.550781 C 52.234375 125.597656 52.089844 125.652344 51.953125 125.675781 L 51.378906 125.789062 C 50.734375 125.8125 49.980469 125.851562 49.484375 125.960938 C 48.71875 126.128906 47.972656 126.363281 47.25 126.648438 C 46.199219 127.058594 45.183594 127.566406 44.152344 128.035156 C 43.339844 128.410156 42.511719 128.785156 41.703125 129.183594 C 41.152344 129.449219 40.613281 129.730469 40.078125 130.023438 C 39.289062 130.460938 38.429688 130.996094 37.714844 131.652344 C 37.195312 132.128906 36.75 132.671875 36.441406 133.285156 C 36.003906 134.152344 36.054688 135.042969 36.4375 135.761719 C 36.804688 136.457031 37.484375 137 38.351562 137.171875 C 38.992188 137.300781 39.707031 137.25 40.433594 137.105469 C 41.390625 136.917969 42.359375 136.570312 43.148438 136.328125 C 45.621094 135.582031 47.851562 134.449219 49.621094 132.828125 C 50.308594 132.195312 50.925781 131.492188 51.464844 130.714844 C 51.269531 132.734375 51.433594 134.691406 52.050781 136.464844 C 52.710938 138.351562 53.886719 140.035156 55.730469 141.34375 C 56.738281 142.058594 58.535156 142.546875 59.945312 142.238281 C 61.0625 141.992188 61.941406 141.292969 62.1875 139.949219 C 62.316406 139.257812 62.253906 138.542969 62.074219 137.84375 C 61.832031 136.902344 61.375 135.984375 60.949219 135.195312 C 60.59375 134.542969 60.210938 133.929688 59.789062 133.339844 C 59.367188 132.753906 58.917969 132.195312 58.425781 131.652344 C 57.578125 130.710938 56.75 129.722656 55.898438 128.773438 C 55.523438 128.359375 55.140625 127.949219 54.753906 127.554688 C 54.375 127.183594 53.863281 126.796875 53.394531 126.550781 C 53.40625 126.496094 53.425781 126.4375 53.4375 126.378906 C 53.527344 125.964844 53.9375 125.367188 54.101562 124.808594 C 54.132812 124.699219 54.160156 124.59375 54.179688 124.492188 C 54.890625 122.960938 55.664062 121.445312 56.523438 119.957031 C 57.820312 117.710938 59.28125 115.527344 60.902344 113.402344 C 60.847656 113.707031 60.808594 114.007812 60.765625 114.308594 C 60.605469 115.4375 60.554688 116.550781 60.65625 117.664062 C 60.785156 119.140625 61.210938 120.621094 62.152344 122.175781 C 62.601562 122.914062 63.15625 123.765625 63.820312 124.445312 C 64.324219 124.953125 64.890625 125.367188 65.523438 125.601562 C 66.621094 126.007812 67.6875 125.671875 68.492188 124.949219 C 69.238281 124.273438 69.746094 123.257812 69.816406 122.28125 C 69.941406 120.550781 69.574219 119.011719 68.933594 117.578125 C 67.6875 114.777344 65.460938 112.335938 63.84375 109.792969 C 65.921875 107.417969 68.1875 105.128906 70.628906 102.929688 C 71.46875 102.175781 72.328125 101.433594 73.199219 100.703125 Z M 73.199219 100.703125 " fill-opacity="1" fill-rule="evenodd"/></g></g></g><g clip-path="url(#bc6bd62728)"><g clip-path="url(#85bf8563b2)"><g clip-path="url(#ff7bcab25f)"><path fill="#b28551" d="M 148.894531 115.378906 C 148.765625 115.519531 148.636719 115.65625 148.515625 115.792969 C 147.3125 117.167969 145.785156 119.851562 145.09375 122.480469 C 144.578125 124.4375 144.542969 126.363281 145.289062 127.773438 C 146.136719 129.363281 147.710938 129.757812 149.410156 129.421875 C 151.582031 128.992188 153.910156 127.300781 154.683594 125.914062 C 155.238281 124.925781 155.585938 123.8125 155.820312 122.65625 C 156.144531 121.074219 156.257812 119.40625 156.511719 117.898438 C 156.722656 116.589844 157.011719 115.132812 156.949219 113.734375 C 156.921875 113.066406 156.882812 112.375 156.652344 111.765625 C 159.730469 110.46875 162.910156 109.28125 166.164062 108.195312 C 166.796875 107.984375 167.421875 107.777344 168.054688 107.574219 C 167.144531 108.363281 166.277344 109.265625 165.511719 110.242188 C 164.144531 111.976562 163.082031 113.949219 162.609375 115.933594 C 162.207031 117.589844 162.242188 120.542969 163.234375 122.191406 C 164.039062 123.527344 165.375 124.21875 167.523438 123.125 C 168 122.882812 168.460938 122.558594 168.894531 122.191406 C 169.492188 121.679688 170.042969 121.085938 170.535156 120.53125 C 172.21875 118.644531 173.328125 116.734375 174.105469 114.675781 C 174.875 112.652344 175.316406 110.480469 175.65625 108.050781 C 175.785156 107.066406 176.121094 106.148438 176.273438 105.195312 C 180.894531 103.992188 185.59375 102.972656 190.308594 102.128906 C 188.394531 103.144531 186.796875 104.328125 185.53125 105.789062 C 184.117188 107.414062 183.105469 109.375 182.53125 111.84375 C 182.375 112.511719 181.945312 113.929688 181.992188 115.011719 C 182.023438 115.785156 182.292969 116.417969 182.804688 116.78125 C 183.296875 117.136719 184.003906 117.269531 184.800781 117.214844 C 186.101562 117.125 187.6875 116.550781 188.492188 116.265625 C 190.726562 115.492188 192.40625 113.957031 193.710938 112.046875 C 195.527344 109.375 196.574219 105.949219 197.460938 103.019531 C 197.644531 102.402344 197.808594 101.640625 197.917969 100.910156 C 202.214844 100.308594 206.488281 99.84375 210.679688 99.503906 C 208.023438 101.15625 204.289062 104.0625 202.289062 107.421875 C 200.753906 109.996094 200.214844 112.832031 201.730469 115.65625 C 202.136719 116.433594 202.808594 116.828125 203.570312 116.972656 C 204.488281 117.152344 205.578125 116.914062 206.386719 116.613281 C 208.070312 115.984375 209.53125 114.902344 210.765625 113.5625 C 211.960938 112.265625 212.9375 110.722656 213.699219 109.167969 C 214.125 108.296875 214.433594 107.386719 214.683594 106.457031 C 215.214844 104.445312 215.433594 102.328125 215.996094 100.324219 C 216.09375 99.972656 216.144531 99.546875 216.171875 99.136719 C 218.53125 99.007812 220.859375 98.917969 223.144531 98.871094 C 229.308594 98.738281 235.152344 98.921875 240.484375 99.265625 C 243.082031 99.429688 245.558594 99.597656 247.894531 99.863281 C 248.226562 99.910156 248.546875 99.667969 248.601562 99.316406 C 248.652344 98.96875 248.417969 98.640625 248.078125 98.59375 C 245.738281 98.164062 243.257812 97.761719 240.640625 97.480469 C 235.273438 96.898438 229.359375 96.6875 223.128906 96.753906 C 220.921875 96.78125 218.675781 96.84375 216.390625 96.945312 C 216.363281 96.765625 216.027344 96.414062 216.015625 96.394531 C 216.015625 96.394531 215.390625 95.535156 215.390625 95.535156 L 213.109375 92.710938 C 211.757812 90.992188 210.398438 89.335938 208.757812 88.054688 C 207.628906 87.171875 206.367188 86.460938 204.890625 86.027344 C 204.148438 85.804688 203.074219 85.597656 202.15625 85.746094 C 201.351562 85.875 200.65625 86.257812 200.214844 86.984375 C 199.710938 87.820312 199.804688 88.769531 200.316406 89.707031 C 201.082031 91.113281 202.898438 92.5 203.625 93.042969 C 205.761719 94.59375 208.417969 96.199219 211.210938 97.246094 C 207.089844 97.539062 202.890625 97.964844 198.664062 98.523438 C 198.460938 98.273438 198.261719 98.023438 198.03125 97.789062 C 197.898438 97.652344 197.746094 97.535156 197.609375 97.410156 C 195.695312 95.734375 193.78125 94.046875 191.835938 92.417969 C 190.601562 91.390625 189.285156 90.367188 187.875 89.539062 C 186.894531 88.964844 185.871094 88.488281 184.800781 88.164062 C 182.640625 87.519531 180.128906 87.863281 179.050781 89.089844 C 178.242188 90.007812 177.957031 91.457031 179.191406 93.464844 C 179.765625 94.398438 180.484375 95.171875 181.296875 95.816406 C 182.46875 96.742188 183.835938 97.40625 185.253906 97.9375 C 186.132812 98.265625 187.035156 98.535156 187.945312 98.769531 C 189.226562 99.09375 190.527344 99.339844 191.816406 99.554688 C 186.769531 100.40625 181.730469 101.457031 176.777344 102.726562 C 176.660156 102.507812 176.5 102.300781 176.347656 102.089844 C 175.710938 101.226562 174.746094 100.503906 174.085938 99.867188 C 172.171875 98.074219 169.679688 96.125 167.03125 94.824219 C 165.15625 93.90625 163.210938 93.308594 161.328125 93.273438 C 160.925781 93.265625 160.523438 93.292969 160.121094 93.347656 C 159.726562 93.398438 159.335938 93.480469 158.949219 93.585938 C 158.632812 93.671875 158.3125 93.777344 157.992188 93.894531 C 157.675781 94.015625 157.363281 94.148438 157.0625 94.296875 C 155.964844 94.832031 155.410156 95.46875 155.179688 96.082031 C 154.9375 96.738281 155.019531 97.421875 155.386719 98.097656 C 156.503906 100.144531 160.839844 102.234375 162.183594 102.746094 C 163.171875 103.125 164.175781 103.460938 165.203125 103.742188 C 166.226562 104.023438 167.269531 104.253906 168.316406 104.417969 C 168.847656 104.496094 169.398438 104.570312 169.957031 104.636719 C 168.457031 105.089844 166.976562 105.566406 165.503906 106.066406 C 161.8125 107.316406 158.214844 108.714844 154.757812 110.257812 C 154.214844 109.652344 153.519531 109.203125 152.867188 108.707031 C 151.566406 107.714844 150.175781 106.851562 148.71875 106.144531 C 147.644531 105.625 146.550781 105.074219 145.429688 104.605469 C 144.652344 104.28125 143.867188 103.996094 143.0625 103.785156 C 142.027344 103.515625 140.917969 103.375 139.828125 103.445312 C 138.703125 103.519531 137.589844 103.8125 136.597656 104.386719 C 135.480469 105.023438 134.683594 106.113281 134.402344 107.304688 C 134.113281 108.527344 134.34375 109.851562 135.304688 110.902344 C 135.855469 111.511719 136.585938 111.921875 137.382812 112.195312 C 138.429688 112.554688 139.601562 112.683594 140.585938 112.804688 C 142.566406 113.046875 144.53125 113.238281 146.496094 113.226562 C 147.28125 113.21875 148.066406 113.179688 148.851562 113.109375 C 144.460938 115.398438 140.347656 117.9375 136.621094 120.761719 C 136.445312 120.804688 136.300781 120.917969 136.207031 121.0625 C 136.191406 121.050781 136.171875 121.035156 136.160156 121.023438 C 135.929688 120.816406 135.683594 120.636719 135.441406 120.457031 C 133.964844 119.371094 132.449219 118.460938 130.867188 117.769531 C 128.863281 116.886719 126.710938 116.425781 124.1875 116.679688 C 122.828125 116.832031 120.414062 118.152344 119.355469 119.710938 C 118.847656 120.460938 118.628906 121.257812 118.792969 122.015625 C 118.929688 122.652344 119.332031 123.296875 120.183594 123.84375 C 121.324219 124.574219 122.734375 124.90625 124.210938 124.984375 C 126.230469 125.085938 128.382812 124.738281 130.085938 124.484375 C 131.175781 124.320312 132.128906 124.050781 133.023438 123.691406 C 130.945312 125.507812 129.027344 127.429688 127.285156 129.464844 C 125.761719 131.25 124.347656 133.105469 123.148438 135.082031 C 123 135.097656 122.847656 135.121094 122.707031 135.109375 L 122.121094 135.097656 C 121.488281 134.976562 120.746094 134.851562 120.238281 134.847656 C 119.453125 134.847656 118.675781 134.914062 117.902344 135.03125 C 116.789062 135.203125 115.6875 135.476562 114.582031 135.710938 C 113.703125 135.898438 112.816406 136.085938 111.941406 136.296875 C 111.34375 136.4375 110.757812 136.589844 110.171875 136.761719 C 109.304688 137.015625 108.347656 137.347656 107.507812 137.835938 C 106.894531 138.1875 106.34375 138.617188 105.910156 139.152344 C 105.292969 139.898438 105.148438 140.78125 105.363281 141.566406 C 105.570312 142.324219 106.117188 143.003906 106.921875 143.359375 C 107.519531 143.625 108.230469 143.734375 108.972656 143.75 C 109.945312 143.777344 110.96875 143.648438 111.789062 143.582031 C 114.367188 143.394531 116.789062 142.777344 118.871094 141.578125 C 119.679688 141.113281 120.4375 140.5625 121.132812 139.921875 C 120.5 141.847656 120.230469 143.796875 120.445312 145.660156 C 120.679688 147.648438 121.457031 149.546875 122.976562 151.226562 C 123.800781 152.144531 125.449219 153.011719 126.890625 153.019531 C 128.035156 153.019531 129.046875 152.53125 129.578125 151.277344 C 129.855469 150.628906 129.953125 149.917969 129.929688 149.195312 C 129.898438 148.222656 129.652344 147.226562 129.40625 146.367188 C 129.207031 145.652344 128.960938 144.96875 128.679688 144.300781 C 128.398438 143.636719 128.078125 142.992188 127.71875 142.355469 C 127.097656 141.25 126.507812 140.109375 125.882812 138.996094 C 125.605469 138.507812 125.324219 138.023438 125.03125 137.554688 C 124.742188 137.109375 124.328125 136.621094 123.921875 136.28125 C 123.949219 136.226562 123.976562 136.171875 124.003906 136.121094 C 124.179688 135.734375 124.710938 135.242188 124.996094 134.734375 C 125.050781 134.636719 125.097656 134.539062 125.136719 134.441406 C 126.167969 133.101562 127.25 131.789062 128.414062 130.527344 C 130.171875 128.621094 132.074219 126.804688 134.121094 125.085938 C 134 125.371094 133.894531 125.660156 133.785156 125.941406 C 133.386719 127.007812 133.09375 128.082031 132.949219 129.191406 C 132.753906 130.660156 132.847656 132.199219 133.421875 133.917969 C 133.699219 134.742188 134.054688 135.691406 134.558594 136.5 C 134.9375 137.105469 135.398438 137.632812 135.964844 138 C 136.949219 138.636719 138.0625 138.539062 139.003906 138.011719 C 139.882812 137.515625 140.597656 136.632812 140.878906 135.695312 C 141.378906 134.035156 141.359375 132.453125 141.046875 130.914062 C 140.441406 127.910156 138.800781 125.042969 137.78125 122.207031 C 140.324219 120.339844 143.035156 118.601562 145.898438 116.992188 C 146.882812 116.4375 147.882812 115.902344 148.894531 115.378906 Z M 148.894531 115.378906 " fill-opacity="1" fill-rule="evenodd"/></g></g></g><g clip-path="url(#ad6dcc5a94)"><g clip-path="url(#223e13b607)"><g clip-path="url(#d20cdab3e9)"><path fill="#b28551" d="M 46.125 53.082031 C 46.042969 53.253906 45.960938 53.425781 45.886719 53.589844 C 45.140625 55.257812 44.476562 58.273438 44.59375 60.992188 C 44.683594 63.011719 45.21875 64.863281 46.347656 65.988281 C 47.625 67.257812 49.25 67.167969 50.773438 66.34375 C 52.71875 65.292969 54.441406 62.984375 54.769531 61.433594 C 55.007812 60.324219 55.011719 59.160156 54.894531 57.984375 C 54.734375 56.378906 54.347656 54.75 54.144531 53.234375 C 53.960938 51.921875 53.804688 50.445312 53.332031 49.128906 C 53.109375 48.496094 52.863281 47.847656 52.464844 47.335938 C 55.023438 45.1875 57.710938 43.113281 60.492188 41.109375 C 61.035156 40.722656 61.574219 40.339844 62.117188 39.960938 C 61.484375 40.980469 60.921875 42.097656 60.476562 43.261719 C 59.683594 45.320312 59.25 47.519531 59.386719 49.554688 C 59.496094 51.253906 60.402344 54.066406 61.839844 55.347656 C 63 56.382812 64.484375 56.652344 66.210938 54.972656 C 66.59375 54.597656 66.9375 54.152344 67.242188 53.671875 C 67.664062 53.007812 68.011719 52.273438 68.320312 51.601562 C 69.371094 49.300781 69.863281 47.148438 70 44.953125 C 70.132812 42.789062 69.914062 40.585938 69.523438 38.164062 C 69.351562 37.1875 69.398438 36.210938 69.265625 35.253906 C 73.324219 32.738281 77.511719 30.375 81.761719 28.171875 C 80.234375 29.710938 79.0625 31.3125 78.28125 33.082031 C 77.414062 35.050781 77.027344 37.226562 77.210938 39.753906 C 77.257812 40.4375 77.265625 41.917969 77.632812 42.941406 C 77.890625 43.671875 78.332031 44.191406 78.929688 44.390625 C 79.503906 44.582031 80.21875 44.5 80.964844 44.210938 C 82.183594 43.742188 83.527344 42.726562 84.210938 42.214844 C 86.117188 40.816406 87.269531 38.851562 87.949219 36.636719 C 88.894531 33.550781 88.878906 29.96875 88.859375 26.90625 C 88.851562 26.261719 88.785156 25.488281 88.671875 24.757812 C 92.601562 22.910156 96.542969 21.203125 100.449219 19.640625 C 98.398438 22 95.691406 25.882812 94.777344 29.683594 C 94.070312 32.597656 94.394531 35.464844 96.679688 37.714844 C 97.292969 38.335938 98.050781 38.515625 98.824219 38.429688 C 99.753906 38.328125 100.726562 37.777344 101.40625 37.253906 C 102.828125 36.152344 103.90625 34.683594 104.6875 33.042969 C 105.445312 31.449219 105.921875 29.6875 106.191406 27.976562 C 106.339844 27.019531 106.363281 26.058594 106.328125 25.097656 C 106.242188 23.015625 105.824219 20.929688 105.769531 18.847656 C 105.757812 18.484375 105.679688 18.0625 105.582031 17.664062 C 107.796875 16.839844 110 16.066406 112.167969 15.34375 C 118.015625 13.394531 123.648438 11.839844 128.84375 10.589844 C 131.375 9.980469 133.792969 9.40625 136.101562 8.96875 C 136.433594 8.917969 136.667969 8.589844 136.613281 8.242188 C 136.558594 7.890625 136.238281 7.648438 135.898438 7.703125 C 133.539062 7.984375 131.050781 8.335938 128.46875 8.839844 C 123.167969 9.875 117.457031 11.421875 111.527344 13.328125 C 109.425781 14.003906 107.296875 14.730469 105.148438 15.503906 C 105.066406 15.339844 104.640625 15.105469 104.625 15.089844 C 104.625 15.089844 103.769531 14.453125 103.769531 14.453125 L 100.753906 12.429688 C 98.960938 11.1875 97.167969 10.007812 95.222656 9.269531 C 93.882812 8.761719 92.46875 8.457031 90.929688 8.480469 C 90.152344 8.484375 89.066406 8.605469 88.234375 9.019531 C 87.503906 9.378906 86.949219 9.949219 86.746094 10.773438 C 86.511719 11.722656 86.882812 12.605469 87.648438 13.34375 C 88.796875 14.464844 90.941406 15.25 91.796875 15.554688 C 94.296875 16.402344 97.308594 17.148438 100.285156 17.324219 C 96.4375 18.824219 92.550781 20.46875 88.679688 22.257812 C 88.410156 22.078125 88.148438 21.898438 87.855469 21.742188 C 87.6875 21.652344 87.511719 21.582031 87.34375 21.507812 C 85.019531 20.472656 82.691406 19.425781 80.347656 18.441406 C 78.867188 17.828125 77.308594 17.238281 75.714844 16.867188 C 74.609375 16.609375 73.488281 16.453125 72.371094 16.460938 C 70.117188 16.484375 67.820312 17.554688 67.152344 19.046875 C 66.652344 20.164062 66.808594 21.632812 68.582031 23.183594 C 69.40625 23.910156 70.320312 24.433594 71.289062 24.808594 C 72.679688 25.347656 74.183594 25.574219 75.695312 25.664062 C 76.628906 25.714844 77.574219 25.710938 78.511719 25.660156 C 79.832031 25.59375 81.148438 25.441406 82.445312 25.265625 C 77.875 27.574219 73.371094 30.070312 69.015625 32.746094 C 68.839844 32.574219 68.625 32.421875 68.417969 32.265625 C 67.554688 31.628906 66.417969 31.222656 65.597656 30.8125 C 63.238281 29.664062 60.28125 28.539062 57.367188 28.082031 C 55.308594 27.761719 53.269531 27.765625 51.460938 28.289062 C 51.078125 28.398438 50.695312 28.542969 50.328125 28.714844 C 49.96875 28.882812 49.621094 29.074219 49.28125 29.289062 C 49.003906 29.46875 48.726562 29.664062 48.460938 29.871094 C 48.191406 30.078125 47.933594 30.296875 47.6875 30.527344 C 46.796875 31.363281 46.457031 32.136719 46.417969 32.789062 C 46.378906 33.488281 46.664062 34.117188 47.210938 34.652344 C 48.882812 36.28125 53.644531 36.992188 55.078125 37.085938 C 56.136719 37.15625 57.195312 37.175781 58.257812 37.140625 C 59.320312 37.109375 60.382812 37.019531 61.433594 36.867188 C 61.964844 36.785156 62.515625 36.691406 63.066406 36.589844 C 61.769531 37.46875 60.492188 38.359375 59.234375 39.273438 C 56.078125 41.558594 53.054688 43.957031 50.207031 46.457031 C 49.511719 46.039062 48.714844 45.8125 47.945312 45.535156 C 46.410156 44.972656 44.824219 44.558594 43.226562 44.3125 C 42.046875 44.136719 40.835938 43.929688 39.628906 43.816406 C 38.789062 43.734375 37.953125 43.695312 37.121094 43.730469 C 36.054688 43.78125 34.953125 43.976562 33.929688 44.367188 C 32.878906 44.769531 31.90625 45.378906 31.125 46.21875 C 30.25 47.160156 29.808594 48.4375 29.894531 49.65625 C 29.976562 50.910156 30.589844 52.109375 31.820312 52.828125 C 32.527344 53.246094 33.34375 53.421875 34.1875 53.449219 C 35.289062 53.480469 36.449219 53.253906 37.425781 53.082031 C 39.386719 52.726562 41.320312 52.328125 43.195312 51.734375 C 43.945312 51.496094 44.683594 51.226562 45.410156 50.925781 C 41.894531 54.410156 38.71875 58.054688 35.992188 61.855469 C 35.835938 61.949219 35.730469 62.097656 35.6875 62.265625 C 35.664062 62.257812 35.644531 62.25 35.628906 62.242188 C 35.347656 62.113281 35.0625 62.011719 34.773438 61.914062 C 33.042969 61.3125 31.328125 60.894531 29.613281 60.699219 C 27.433594 60.449219 25.242188 60.644531 22.90625 61.636719 C 21.652344 62.179688 19.742188 64.160156 19.191406 65.960938 C 18.925781 66.824219 18.953125 67.65625 19.332031 68.328125 C 19.652344 68.894531 20.226562 69.394531 21.203125 69.664062 C 22.511719 70.023438 23.953125 69.921875 25.390625 69.558594 C 27.347656 69.0625 29.300781 68.089844 30.851562 67.347656 C 31.84375 66.867188 32.675781 66.324219 33.421875 65.71875 C 31.976562 68.066406 30.714844 70.46875 29.648438 72.929688 C 28.722656 75.085938 27.921875 77.277344 27.363281 79.519531 C 27.222656 79.578125 27.082031 79.644531 26.949219 79.675781 L 26.382812 79.839844 C 25.742188 79.910156 24.996094 80.011719 24.511719 80.160156 C 23.761719 80.386719 23.035156 80.683594 22.335938 81.023438 C 21.324219 81.515625 20.351562 82.105469 19.363281 82.65625 C 18.578125 83.097656 17.789062 83.535156 17.011719 83.996094 C 16.484375 84.308594 15.96875 84.628906 15.460938 84.964844 C 14.707031 85.464844 13.890625 86.066406 13.234375 86.777344 C 12.753906 87.296875 12.351562 87.871094 12.097656 88.507812 C 11.730469 89.40625 11.851562 90.289062 12.292969 90.976562 C 12.710938 91.640625 13.433594 92.125 14.308594 92.230469 C 14.960938 92.304688 15.671875 92.199219 16.382812 91.996094 C 17.320312 91.730469 18.257812 91.308594 19.023438 91.003906 C 21.429688 90.058594 23.5625 88.75 25.195312 86.992188 C 25.828125 86.308594 26.390625 85.558594 26.867188 84.738281 C 26.832031 86.765625 27.152344 88.707031 27.90625 90.421875 C 28.71875 92.253906 30.023438 93.835938 31.96875 94.992188 C 33.03125 95.625 34.863281 95.96875 36.242188 95.546875 C 37.335938 95.210938 38.15625 94.441406 38.292969 93.085938 C 38.367188 92.386719 38.246094 91.679688 38.011719 90.996094 C 37.695312 90.078125 37.164062 89.199219 36.675781 88.449219 C 36.273438 87.824219 35.839844 87.242188 35.371094 86.691406 C 34.90625 86.140625 34.410156 85.621094 33.878906 85.117188 C 32.957031 84.246094 32.054688 83.328125 31.128906 82.449219 C 30.71875 82.066406 30.308594 81.6875 29.890625 81.324219 C 29.480469 80.988281 28.941406 80.640625 28.453125 80.4375 C 28.460938 80.378906 28.476562 80.316406 28.484375 80.257812 C 28.539062 79.839844 28.902344 79.210938 29.019531 78.644531 C 29.042969 78.53125 29.0625 78.421875 29.070312 78.320312 C 29.65625 76.734375 30.304688 75.160156 31.042969 73.609375 C 32.15625 71.269531 33.4375 68.972656 34.882812 66.726562 C 34.855469 67.035156 34.839844 67.339844 34.816406 67.640625 C 34.75 68.78125 34.789062 69.894531 34.980469 70.996094 C 35.226562 72.453125 35.769531 73.898438 36.832031 75.371094 C 37.339844 76.070312 37.960938 76.875 38.679688 77.496094 C 39.21875 77.964844 39.816406 78.332031 40.46875 78.515625 C 41.59375 78.832031 42.628906 78.410156 43.371094 77.625 C 44.066406 76.894531 44.488281 75.839844 44.480469 74.859375 C 44.464844 73.128906 43.976562 71.621094 43.226562 70.246094 C 41.757812 67.554688 39.339844 65.300781 37.527344 62.890625 C 39.40625 60.359375 41.480469 57.894531 43.738281 55.507812 C 44.515625 54.691406 45.3125 53.882812 46.125 53.082031 Z M 46.125 53.082031 " fill-opacity="1" fill-rule="evenodd"/></g></g></g></svg>