<svg xmlns="http://www.w3.org/2000/svg" xmlns:xlink="http://www.w3.org/1999/xlink" width="401" zoomAndPan="magnify" viewBox="0 0 300.75 269.25" height="359" preserveAspectRatio="xMidYMid meet" version="1.0"><defs><clipPath id="aaa9d9ce08"><path d="M 123 44 L 206 44 L 206 173 L 123 173 Z M 123 44 " clip-rule="nonzero"/></clipPath><clipPath id="e13867a03b"><path d="M 196.269531 37.71875 L 240.109375 100.152344 L 128.097656 178.804688 L 84.257812 116.371094 Z M 196.269531 37.71875 " clip-rule="nonzero"/></clipPath><clipPath id="417217b364"><path d="M 196.269531 37.71875 L 240.109375 100.152344 L 128.097656 178.804688 L 84.257812 116.371094 Z M 196.269531 37.71875 " clip-rule="nonzero"/></clipPath><clipPath id="3b7ad34900"><path d="M 34 73 L 140 73 L 140 182 L 34 182 Z M 34 73 " clip-rule="nonzero"/></clipPath><clipPath id="133f17fd0c"><path d="M 135.230469 65.648438 L 164.382812 136.148438 L 37.902344 188.449219 L 8.75 117.953125 Z M 135.230469 65.648438 " clip-rule="nonzero"/></clipPath><clipPath id="d25494069a"><path d="M 135.230469 65.648438 L 164.382812 136.148438 L 37.902344 188.449219 L 8.75 117.953125 Z M 135.230469 65.648438 " clip-rule="nonzero"/></clipPath><clipPath id="d75db7f01a"><path d="M 176 72 L 251 72 L 251 206 L 176 206 Z M 176 72 " clip-rule="nonzero"/></clipPath><clipPath id="2e6e74b638"><path d="M 238.695312 65.230469 L 287.402344 123.949219 L 182.058594 211.332031 L 133.351562 152.613281 Z M 238.695312 65.230469 " clip-rule="nonzero"/></clipPath><clipPath id="b9d1e0b5fa"><path d="M 238.695312 65.230469 L 287.402344 123.949219 L 182.058594 211.332031 L 133.351562 152.613281 Z M 238.695312 65.230469 " clip-rule="nonzero"/></clipPath></defs><g clip-path="url(#aaa9d9ce08)"><g clip-path="url(#e13867a03b)"><g clip-path="url(#417217b364)"><path fill="#b28551" d="M 186.472656 93.882812 C 186.476562 93.691406 186.476562 93.503906 186.476562 93.324219 C 186.449219 91.496094 185.78125 88.484375 184.535156 86.070312 C 183.605469 84.273438 182.34375 82.820312 180.847656 82.277344 C 179.152344 81.660156 177.722656 82.425781 176.6875 83.8125 C 175.363281 85.585938 174.769531 88.398438 175.125 89.941406 C 175.375 91.046875 175.863281 92.105469 176.460938 93.121094 C 177.28125 94.511719 178.316406 95.824219 179.136719 97.113281 C 179.855469 98.226562 180.617188 99.5 181.597656 100.496094 C 182.066406 100.972656 182.558594 101.460938 183.136719 101.757812 C 181.722656 104.777344 180.160156 107.789062 178.472656 110.773438 C 178.144531 111.351562 177.820312 111.925781 177.484375 112.5 C 177.632812 111.308594 177.671875 110.058594 177.585938 108.816406 C 177.441406 106.617188 176.910156 104.441406 175.929688 102.652344 C 175.117188 101.160156 173.113281 98.992188 171.273438 98.429688 C 169.785156 97.980469 168.328125 98.363281 167.46875 100.609375 C 167.277344 101.109375 167.152344 101.660156 167.078125 102.222656 C 166.976562 103 166.964844 103.8125 166.972656 104.550781 C 166.984375 107.078125 167.445312 109.238281 168.242188 111.285156 C 169.03125 113.300781 170.152344 115.207031 171.527344 117.238281 C 172.09375 118.050781 172.460938 118.957031 172.980469 119.765625 C 170.363281 123.753906 167.558594 127.65625 164.628906 131.441406 C 165.367188 129.402344 165.757812 127.457031 165.722656 125.523438 C 165.683594 123.375 165.117188 121.242188 163.890625 119.027344 C 163.558594 118.425781 162.929688 117.085938 162.167969 116.316406 C 161.628906 115.761719 161.007812 115.476562 160.382812 115.546875 C 159.78125 115.613281 159.167969 115.988281 158.613281 116.5625 C 157.703125 117.5 156.914062 118.988281 156.507812 119.738281 C 155.371094 121.808594 155.148438 124.070312 155.464844 126.363281 C 155.90625 129.5625 157.421875 132.800781 158.726562 135.570312 C 159.003906 136.152344 159.390625 136.824219 159.800781 137.4375 C 157.015625 140.765625 154.15625 143.96875 151.273438 147.027344 C 152.140625 144.023438 152.960938 139.367188 152.195312 135.535156 C 151.609375 132.597656 150.113281 130.132812 147.097656 129.054688 C 146.277344 128.75 145.515625 128.90625 144.851562 129.308594 C 144.050781 129.792969 143.402344 130.699219 143.003906 131.460938 C 142.175781 133.054688 141.816406 134.839844 141.796875 136.65625 C 141.78125 138.421875 142.089844 140.214844 142.5625 141.882812 C 142.832031 142.8125 143.214844 143.691406 143.652344 144.550781 C 144.605469 146.398438 145.859375 148.113281 146.785156 149.976562 C 146.945312 150.304688 147.195312 150.652344 147.449219 150.976562 C 145.789062 152.652344 144.117188 154.277344 142.457031 155.84375 C 137.972656 160.066406 133.515625 163.84375 129.332031 167.160156 C 127.292969 168.777344 125.34375 170.3125 123.4375 171.679688 C 123.15625 171.867188 123.082031 172.261719 123.277344 172.554688 C 123.472656 172.851562 123.863281 172.933594 124.148438 172.742188 C 126.171875 171.496094 128.28125 170.132812 130.410156 168.589844 C 134.78125 165.425781 139.308594 161.625 143.882812 157.402344 C 145.503906 155.90625 147.128906 154.355469 148.753906 152.75 C 148.894531 152.863281 149.378906 152.898438 149.402344 152.90625 C 149.402344 152.90625 150.441406 153.125 150.441406 153.125 L 154.027344 153.691406 C 156.175781 154.0625 158.292969 154.378906 160.367188 154.230469 C 161.796875 154.128906 163.207031 153.8125 164.59375 153.144531 C 165.296875 152.8125 166.226562 152.246094 166.8125 151.523438 C 167.324219 150.890625 167.582031 150.140625 167.421875 149.308594 C 167.234375 148.347656 166.527344 147.703125 165.523438 147.355469 C 164.015625 146.824219 161.734375 147.011719 160.832031 147.09375 C 158.210938 147.375 155.167969 147.964844 152.394531 149.054688 C 155.253906 146.078125 158.085938 142.953125 160.84375 139.707031 C 161.164062 139.757812 161.476562 139.808594 161.808594 139.828125 C 161.996094 139.839844 162.1875 139.828125 162.371094 139.828125 C 164.914062 139.789062 167.460938 139.757812 170 139.664062 C 171.597656 139.601562 173.261719 139.480469 174.863281 139.148438 C 175.972656 138.917969 177.054688 138.585938 178.066406 138.109375 C 180.097656 137.140625 181.730469 135.207031 181.710938 133.574219 C 181.695312 132.351562 180.9375 131.085938 178.675781 130.421875 C 177.621094 130.113281 176.574219 130.019531 175.539062 130.085938 C 174.050781 130.183594 172.589844 130.609375 171.1875 131.164062 C 170.3125 131.507812 169.460938 131.914062 168.628906 132.351562 C 167.460938 132.96875 166.332031 133.65625 165.230469 134.359375 C 168.40625 130.347656 171.441406 126.191406 174.261719 121.9375 C 174.496094 122.019531 174.753906 122.066406 175.007812 122.121094 C 176.058594 122.335938 177.261719 122.226562 178.175781 122.253906 C 180.792969 122.304688 183.949219 122.082031 186.785156 121.269531 C 188.785156 120.695312 190.632812 119.835938 192.050781 118.601562 C 192.351562 118.339844 192.636719 118.050781 192.898438 117.738281 C 193.15625 117.4375 193.390625 117.117188 193.605469 116.78125 C 193.785156 116.5 193.953125 116.207031 194.109375 115.90625 C 194.265625 115.605469 194.40625 115.300781 194.53125 114.988281 C 194.988281 113.855469 194.972656 113.011719 194.730469 112.402344 C 194.472656 111.753906 193.953125 111.304688 193.230469 111.046875 C 191.03125 110.273438 186.414062 111.628906 185.074219 112.148438 C 184.085938 112.527344 183.117188 112.953125 182.167969 113.433594 C 181.21875 113.910156 180.292969 114.4375 179.40625 115.015625 C 178.957031 115.3125 178.5 115.628906 178.042969 115.953125 C 178.851562 114.613281 179.632812 113.265625 180.386719 111.910156 C 182.289062 108.511719 184.023438 105.066406 185.554688 101.605469 C 186.359375 101.691406 187.179688 101.558594 187.992188 101.492188 C 189.621094 101.355469 191.234375 101.0625 192.785156 100.613281 C 193.929688 100.277344 195.109375 99.957031 196.253906 99.554688 C 197.050781 99.277344 197.824219 98.960938 198.5625 98.578125 C 199.511719 98.082031 200.425781 97.445312 201.1875 96.660156 C 201.972656 95.851562 202.597656 94.890625 202.953125 93.800781 C 203.351562 92.582031 203.214844 91.238281 202.625 90.167969 C 202.023438 89.066406 200.964844 88.238281 199.546875 88.105469 C 198.730469 88.019531 197.914062 88.207031 197.140625 88.535156 C 196.125 88.96875 195.167969 89.660156 194.355469 90.230469 C 192.726562 91.375 191.144531 92.546875 189.691406 93.875 C 189.113281 94.402344 188.558594 94.957031 188.023438 95.539062 C 189.746094 90.898438 191.097656 86.261719 191.96875 81.671875 C 192.074219 81.519531 192.105469 81.339844 192.074219 81.171875 C 192.097656 81.171875 192.121094 81.167969 192.136719 81.167969 C 192.445312 81.167969 192.75 81.140625 193.050781 81.109375 C 194.875 80.925781 196.605469 80.585938 198.242188 80.039062 C 200.320312 79.351562 202.226562 78.253906 203.925781 76.375 C 204.832031 75.351562 205.738281 72.753906 205.480469 70.890625 C 205.355469 69.996094 204.980469 69.253906 204.355469 68.804688 C 203.828125 68.425781 203.097656 68.214844 202.097656 68.378906 C 200.761719 68.601562 199.496094 69.300781 198.347656 70.234375 C 196.78125 71.507812 195.417969 73.207031 194.324219 74.535156 C 193.625 75.386719 193.101562 76.226562 192.679688 77.089844 C 193.003906 74.351562 193.136719 71.644531 193.066406 68.96875 C 193 66.625 192.804688 64.300781 192.371094 62.03125 C 192.476562 61.917969 192.574219 61.800781 192.683594 61.714844 L 193.125 61.332031 C 193.675781 60.996094 194.308594 60.589844 194.691406 60.253906 C 195.273438 59.730469 195.804688 59.160156 196.296875 58.554688 C 197.007812 57.683594 197.644531 56.742188 198.308594 55.828125 C 198.832031 55.097656 199.367188 54.367188 199.875 53.625 C 200.222656 53.121094 200.554688 52.613281 200.875 52.09375 C 201.347656 51.324219 201.835938 50.4375 202.132812 49.515625 C 202.351562 48.84375 202.472656 48.15625 202.4375 47.46875 C 202.390625 46.5 201.910156 45.75 201.222656 45.3125 C 200.5625 44.886719 199.703125 44.75 198.867188 45.027344 C 198.246094 45.230469 197.644531 45.625 197.085938 46.105469 C 196.347656 46.742188 195.671875 47.519531 195.105469 48.117188 C 193.324219 49.984375 191.9375 52.066406 191.199219 54.34375 C 190.910156 55.234375 190.714844 56.152344 190.628906 57.089844 C 189.808594 55.238281 188.703125 53.613281 187.296875 52.375 C 185.792969 51.058594 183.945312 50.171875 181.695312 49.941406 C 180.46875 49.8125 178.660156 50.269531 177.589844 51.234375 C 176.738281 51.996094 176.316406 53.039062 176.761719 54.324219 C 176.992188 54.992188 177.394531 55.582031 177.894531 56.101562 C 178.570312 56.800781 179.417969 57.375 180.175781 57.851562 C 180.804688 58.246094 181.441406 58.589844 182.097656 58.898438 C 182.753906 59.199219 183.417969 59.464844 184.113281 59.695312 C 185.3125 60.097656 186.519531 60.550781 187.726562 60.957031 C 188.257812 61.132812 188.789062 61.304688 189.324219 61.457031 C 189.835938 61.589844 190.46875 61.679688 190.996094 61.660156 C 191.015625 61.714844 191.027344 61.777344 191.046875 61.832031 C 191.171875 62.238281 191.105469 62.957031 191.238281 63.523438 C 191.265625 63.632812 191.292969 63.738281 191.328125 63.835938 C 191.460938 65.519531 191.535156 67.21875 191.519531 68.933594 C 191.492188 71.523438 191.296875 74.144531 190.929688 76.792969 C 190.828125 76.5 190.710938 76.214844 190.605469 75.933594 C 190.1875 74.871094 189.683594 73.878906 189.050781 72.960938 C 188.210938 71.742188 187.113281 70.660156 185.53125 69.773438 C 184.777344 69.347656 183.875 68.882812 182.960938 68.621094 C 182.273438 68.421875 181.578125 68.339844 180.914062 68.449219 C 179.757812 68.632812 178.996094 69.449219 178.652344 70.476562 C 178.332031 71.429688 178.394531 72.5625 178.8125 73.449219 C 179.554688 75.011719 180.628906 76.171875 181.890625 77.105469 C 184.351562 78.929688 187.488281 79.957031 190.144531 81.375 C 189.503906 84.464844 188.660156 87.570312 187.613281 90.679688 C 187.253906 91.75 186.875 92.816406 186.472656 93.882812 Z M 186.472656 93.882812 " fill-opacity="1" fill-rule="evenodd"/></g></g></g><g clip-path="url(#3b7ad34900)"><g clip-path="url(#133f17fd0c)"><g clip-path="url(#d25494069a)"><path fill="#b28551" d="M 113.410156 118.320312 C 113.453125 118.136719 113.496094 117.953125 113.535156 117.773438 C 113.90625 115.988281 113.914062 112.902344 113.222656 110.273438 C 112.710938 108.316406 111.792969 106.625 110.453125 105.765625 C 108.933594 104.796875 107.371094 105.230469 106.058594 106.355469 C 104.378906 107.796875 103.1875 110.414062 103.195312 112 C 103.195312 113.132812 103.441406 114.269531 103.804688 115.394531 C 104.300781 116.929688 105.023438 118.4375 105.542969 119.871094 C 106.003906 121.117188 106.46875 122.523438 107.210938 123.710938 C 107.5625 124.277344 107.9375 124.859375 108.433594 125.277344 C 106.394531 127.917969 104.210938 130.515625 101.917969 133.058594 C 101.46875 133.550781 101.027344 134.039062 100.574219 134.527344 C 100.980469 133.394531 101.289062 132.183594 101.476562 130.957031 C 101.816406 128.777344 101.769531 126.539062 101.207031 124.578125 C 100.738281 122.941406 99.257812 120.390625 97.582031 119.441406 C 96.230469 118.675781 94.722656 118.730469 93.394531 120.738281 C 93.097656 121.183594 92.859375 121.691406 92.660156 122.226562 C 92.390625 122.964844 92.207031 123.753906 92.050781 124.476562 C 91.511719 126.941406 91.488281 129.152344 91.820312 131.324219 C 92.148438 133.464844 92.828125 135.566406 93.726562 137.851562 C 94.101562 138.765625 94.261719 139.734375 94.59375 140.636719 C 91.167969 143.957031 87.578125 147.152344 83.894531 150.203125 C 85.058594 148.378906 85.867188 146.5625 86.25 144.671875 C 86.683594 142.5625 86.597656 140.359375 85.882812 137.929688 C 85.691406 137.269531 85.371094 135.828125 84.792969 134.90625 C 84.386719 134.25 83.84375 133.835938 83.21875 133.765625 C 82.617188 133.703125 81.9375 133.933594 81.269531 134.371094 C 80.179688 135.089844 79.085938 136.367188 78.523438 137.011719 C 76.960938 138.78125 76.253906 140.945312 76.058594 143.25 C 75.789062 146.464844 76.5625 149.960938 77.230469 152.945312 C 77.375 153.574219 77.605469 154.3125 77.871094 155.003906 C 74.429688 157.640625 70.941406 160.144531 67.457031 162.5 C 68.960938 159.757812 70.777344 155.394531 70.867188 151.488281 C 70.9375 148.492188 70.011719 145.761719 67.304688 144.050781 C 66.570312 143.574219 65.796875 143.5625 65.058594 143.804688 C 64.171875 144.101562 63.339844 144.847656 62.785156 145.503906 C 61.628906 146.878906 60.890625 148.542969 60.472656 150.3125 C 60.074219 152.03125 59.984375 153.847656 60.082031 155.578125 C 60.140625 156.542969 60.320312 157.488281 60.558594 158.417969 C 61.085938 160.429688 61.9375 162.378906 62.433594 164.398438 C 62.519531 164.753906 62.6875 165.148438 62.863281 165.519531 C 60.875 166.789062 58.890625 168.011719 56.925781 169.179688 C 51.628906 172.324219 46.457031 175.035156 41.652344 177.359375 C 39.308594 178.492188 37.070312 179.5625 34.910156 180.480469 C 34.59375 180.601562 34.4375 180.96875 34.5625 181.300781 C 34.691406 181.632812 35.054688 181.796875 35.375 181.675781 C 37.617188 180.898438 39.976562 180.03125 42.390625 178.988281 C 47.34375 176.855469 52.59375 174.132812 57.980469 171.011719 C 59.890625 169.90625 61.8125 168.746094 63.75 167.53125 C 63.863281 167.675781 64.328125 167.816406 64.347656 167.828125 C 64.347656 167.828125 65.316406 168.269531 65.316406 168.269531 L 68.6875 169.605469 C 70.707031 170.433594 72.703125 171.207031 74.757812 171.515625 C 76.175781 171.726562 77.621094 171.726562 79.121094 171.378906 C 79.878906 171.207031 80.910156 170.859375 81.640625 170.28125 C 82.277344 169.773438 82.695312 169.097656 82.71875 168.25 C 82.746094 167.273438 82.195312 166.492188 81.292969 165.929688 C 79.933594 165.082031 77.671875 164.769531 76.773438 164.652344 C 74.152344 164.351562 71.054688 164.265625 68.109375 164.722656 C 71.550781 162.445312 74.992188 160.011719 78.398438 157.445312 C 78.695312 157.5625 78.992188 157.683594 79.308594 157.773438 C 79.492188 157.828125 79.679688 157.855469 79.859375 157.894531 C 82.347656 158.414062 84.84375 158.941406 87.339844 159.402344 C 88.914062 159.6875 90.5625 159.933594 92.199219 159.960938 C 93.332031 159.976562 94.457031 159.890625 95.550781 159.644531 C 97.742188 159.144531 99.761719 157.613281 100.097656 156.015625 C 100.347656 154.816406 99.882812 153.417969 97.824219 152.277344 C 96.863281 151.746094 95.859375 151.425781 94.835938 151.265625 C 93.363281 151.035156 91.84375 151.132812 90.351562 151.367188 C 89.425781 151.511719 88.503906 151.71875 87.597656 151.964844 C 86.324219 152.3125 85.074219 152.738281 83.84375 153.183594 C 87.820312 149.964844 91.6875 146.570312 95.371094 143.03125 C 95.578125 143.164062 95.824219 143.269531 96.058594 143.375 C 97.035156 143.8125 98.230469 143.96875 99.117188 144.199219 C 101.664062 144.816406 104.789062 145.289062 107.734375 145.117188 C 109.8125 144.992188 111.800781 144.558594 113.457031 143.660156 C 113.808594 143.472656 114.148438 143.25 114.472656 143.003906 C 114.789062 142.765625 115.085938 142.503906 115.371094 142.222656 C 115.605469 141.988281 115.835938 141.742188 116.050781 141.480469 C 116.269531 141.222656 116.476562 140.953125 116.667969 140.675781 C 117.359375 139.671875 117.527344 138.84375 117.425781 138.195312 C 117.316406 137.507812 116.90625 136.953125 116.257812 136.546875 C 114.277344 135.3125 109.476562 135.625 108.058594 135.839844 C 107.011719 135.996094 105.972656 136.199219 104.941406 136.460938 C 103.910156 136.71875 102.894531 137.03125 101.898438 137.402344 C 101.398438 137.59375 100.882812 137.800781 100.367188 138.019531 C 101.445312 136.886719 102.5 135.742188 103.535156 134.585938 C 106.132812 131.683594 108.578125 128.699219 110.828125 125.65625 C 111.59375 125.914062 112.421875 125.96875 113.230469 126.078125 C 114.851562 126.300781 116.488281 126.367188 118.097656 126.265625 C 119.289062 126.191406 120.511719 126.132812 121.71875 125.992188 C 122.554688 125.890625 123.378906 125.753906 124.183594 125.542969 C 125.214844 125.265625 126.246094 124.84375 127.164062 124.246094 C 128.105469 123.625 128.925781 122.828125 129.511719 121.839844 C 130.167969 120.734375 130.324219 119.394531 129.984375 118.222656 C 129.636719 117.015625 128.785156 115.976562 127.429688 115.535156 C 126.652344 115.277344 125.816406 115.277344 124.988281 115.429688 C 123.902344 115.632812 122.816406 116.097656 121.902344 116.476562 C 120.0625 117.238281 118.257812 118.039062 116.554688 119.015625 C 115.871094 119.40625 115.210938 119.824219 114.5625 120.273438 C 117.257812 116.125 119.585938 111.894531 121.4375 107.605469 C 121.574219 107.480469 121.644531 107.3125 121.652344 107.140625 C 121.675781 107.144531 121.695312 107.144531 121.710938 107.152344 C 122.015625 107.21875 122.316406 107.253906 122.617188 107.289062 C 124.4375 107.507812 126.199219 107.554688 127.914062 107.382812 C 130.09375 107.160156 132.195312 106.507812 134.265625 105.042969 C 135.371094 104.246094 136.820312 101.910156 136.976562 100.03125 C 137.050781 99.132812 136.847656 98.328125 136.332031 97.75 C 135.902344 97.265625 135.234375 96.902344 134.226562 96.84375 C 132.871094 96.769531 131.484375 97.171875 130.160156 97.832031 C 128.351562 98.734375 126.652344 100.097656 125.292969 101.152344 C 124.429688 101.832031 123.730469 102.535156 123.132812 103.289062 C 124.046875 100.6875 124.769531 98.074219 125.285156 95.445312 C 125.730469 93.144531 126.046875 90.832031 126.121094 88.523438 C 126.246094 88.4375 126.367188 88.34375 126.492188 88.285156 L 127.007812 88.007812 C 127.621094 87.800781 128.324219 87.542969 128.769531 87.296875 C 129.453125 86.914062 130.097656 86.472656 130.710938 85.992188 C 131.59375 85.296875 132.417969 84.515625 133.265625 83.765625 C 133.9375 83.171875 134.617188 82.574219 135.277344 81.960938 C 135.726562 81.542969 136.160156 81.121094 136.585938 80.683594 C 137.214844 80.035156 137.882812 79.277344 138.375 78.441406 C 138.734375 77.835938 139.003906 77.1875 139.121094 76.511719 C 139.285156 75.558594 138.980469 74.71875 138.40625 74.140625 C 137.855469 73.582031 137.042969 73.261719 136.167969 73.347656 C 135.519531 73.410156 134.847656 73.667969 134.195312 74.015625 C 133.335938 74.472656 132.507812 75.085938 131.824219 75.546875 C 129.675781 76.976562 127.871094 78.707031 126.652344 80.769531 C 126.175781 81.574219 125.789062 82.425781 125.496094 83.324219 C 125.101562 81.335938 124.375 79.511719 123.273438 77.996094 C 122.09375 76.378906 120.484375 75.113281 118.339844 74.394531 C 117.167969 74.003906 115.308594 74.054688 114.050781 74.761719 C 113.054688 75.320312 112.414062 76.246094 112.566406 77.597656 C 112.648438 78.296875 112.910156 78.960938 113.285156 79.578125 C 113.789062 80.410156 114.496094 81.15625 115.132812 81.785156 C 115.65625 82.308594 116.207031 82.78125 116.777344 83.222656 C 117.351562 83.660156 117.941406 84.066406 118.570312 84.445312 C 119.652344 85.097656 120.730469 85.804688 121.820312 86.464844 C 122.300781 86.753906 122.78125 87.035156 123.269531 87.300781 C 123.738281 87.542969 124.339844 87.765625 124.859375 87.863281 C 124.863281 87.921875 124.863281 87.984375 124.867188 88.042969 C 124.902344 88.464844 124.683594 89.152344 124.6875 89.734375 C 124.6875 89.847656 124.691406 89.957031 124.707031 90.058594 C 124.46875 91.730469 124.171875 93.40625 123.777344 95.078125 C 123.1875 97.597656 122.425781 100.113281 121.488281 102.613281 C 121.453125 102.308594 121.402344 102.007812 121.359375 101.707031 C 121.183594 100.578125 120.910156 99.5 120.492188 98.464844 C 119.9375 97.09375 119.101562 95.800781 117.753906 94.585938 C 117.109375 94.007812 116.332031 93.355469 115.5 92.902344 C 114.871094 92.558594 114.210938 92.328125 113.535156 92.285156 C 112.371094 92.214844 111.449219 92.847656 110.886719 93.769531 C 110.367188 94.632812 110.179688 95.753906 110.394531 96.707031 C 110.777344 98.394531 111.574219 99.761719 112.597656 100.949219 C 114.601562 103.261719 117.441406 104.953125 119.722656 106.917969 C 118.425781 109.792969 116.921875 112.636719 115.222656 115.445312 C 114.636719 116.410156 114.03125 117.367188 113.410156 118.320312 Z M 113.410156 118.320312 " fill-opacity="1" fill-rule="evenodd"/></g></g></g><g clip-path="url(#d75db7f01a)"><g clip-path="url(#2e6e74b638)"><g clip-path="url(#b9d1e0b5fa)"><path fill="#b28551" d="M 233.4375 122.003906 C 233.421875 121.8125 233.410156 121.625 233.394531 121.445312 C 233.222656 119.625 232.316406 116.675781 230.878906 114.371094 C 229.808594 112.652344 228.433594 111.308594 226.898438 110.886719 C 225.160156 110.40625 223.792969 111.285156 222.871094 112.75 C 221.695312 114.621094 221.332031 117.476562 221.808594 118.984375 C 222.144531 120.066406 222.714844 121.082031 223.394531 122.046875 C 224.324219 123.367188 225.460938 124.59375 226.382812 125.8125 C 227.1875 126.863281 228.050781 128.070312 229.109375 128.984375 C 229.613281 129.425781 230.144531 129.867188 230.742188 130.121094 C 229.574219 133.246094 228.257812 136.371094 226.816406 139.480469 C 226.535156 140.082031 226.257812 140.683594 225.96875 141.28125 C 226.023438 140.082031 225.960938 138.832031 225.777344 137.601562 C 225.453125 135.417969 224.75 133.292969 223.628906 131.589844 C 222.699219 130.164062 220.53125 128.164062 218.648438 127.753906 C 217.132812 127.425781 215.707031 127.921875 215.03125 130.230469 C 214.878906 130.746094 214.800781 131.304688 214.773438 131.871094 C 214.734375 132.65625 214.789062 133.464844 214.855469 134.203125 C 215.070312 136.71875 215.699219 138.832031 216.660156 140.808594 C 217.605469 142.757812 218.878906 144.566406 220.414062 146.480469 C 221.042969 147.246094 221.480469 148.121094 222.066406 148.886719 C 219.773438 153.070312 217.289062 157.183594 214.675781 161.191406 C 215.246094 159.101562 215.480469 157.128906 215.289062 155.207031 C 215.078125 153.066406 214.34375 150.984375 212.941406 148.875 C 212.566406 148.304688 211.832031 147.019531 211.007812 146.3125 C 210.425781 145.804688 209.785156 145.566406 209.167969 145.6875 C 208.570312 145.804688 207.992188 146.226562 207.484375 146.84375 C 206.65625 147.851562 205.988281 149.394531 205.644531 150.179688 C 204.671875 152.332031 204.636719 154.605469 205.132812 156.863281 C 205.828125 160.015625 207.601562 163.125 209.121094 165.78125 C 209.445312 166.335938 209.886719 166.976562 210.34375 167.554688 C 207.832031 171.09375 205.242188 174.519531 202.613281 177.796875 C 203.238281 174.734375 203.683594 170.027344 202.609375 166.269531 C 201.789062 163.390625 200.097656 161.054688 197.007812 160.21875 C 196.167969 159.980469 195.421875 160.199219 194.792969 160.652344 C 194.03125 161.199219 193.457031 162.152344 193.121094 162.945312 C 192.425781 164.601562 192.210938 166.410156 192.335938 168.222656 C 192.460938 169.980469 192.914062 171.746094 193.519531 173.367188 C 193.859375 174.273438 194.3125 175.121094 194.816406 175.941406 C 195.914062 177.707031 197.304688 179.316406 198.375 181.101562 C 198.5625 181.414062 198.839844 181.742188 199.117188 182.039062 C 197.59375 183.84375 196.058594 185.597656 194.53125 187.292969 C 190.398438 191.863281 186.261719 195.984375 182.355469 199.625 C 180.453125 201.402344 178.632812 203.085938 176.84375 204.601562 C 176.578125 204.8125 176.535156 205.210938 176.753906 205.488281 C 176.972656 205.769531 177.371094 205.820312 177.640625 205.609375 C 179.550781 204.199219 181.546875 202.675781 183.546875 200.964844 C 187.648438 197.460938 191.855469 193.308594 196.078125 188.730469 C 197.574219 187.113281 199.070312 185.433594 200.558594 183.703125 C 200.710938 183.804688 201.195312 183.804688 201.21875 183.808594 C 201.21875 183.808594 202.273438 183.941406 202.273438 183.941406 L 205.890625 184.222656 C 208.0625 184.417969 210.199219 184.566406 212.253906 184.25 C 213.671875 184.035156 215.050781 183.605469 216.378906 182.828125 C 217.054688 182.441406 217.9375 181.804688 218.460938 181.035156 C 218.917969 180.363281 219.117188 179.59375 218.890625 178.777344 C 218.628906 177.835938 217.871094 177.25 216.84375 176.980469 C 215.296875 176.574219 213.039062 176.945312 212.148438 177.101562 C 209.554688 177.589844 206.570312 178.417969 203.890625 179.730469 C 206.503906 176.535156 209.074219 173.191406 211.566406 169.734375 C 211.886719 169.757812 212.203125 169.785156 212.535156 169.777344 C 212.722656 169.773438 212.910156 169.746094 213.097656 169.730469 C 215.628906 169.488281 218.164062 169.257812 220.6875 168.960938 C 222.277344 168.765625 223.925781 168.511719 225.492188 168.054688 C 226.582031 167.734375 227.632812 167.316406 228.601562 166.761719 C 230.550781 165.632812 232.023438 163.574219 231.871094 161.949219 C 231.757812 160.730469 230.902344 159.53125 228.59375 159.046875 C 227.519531 158.824219 226.464844 158.816406 225.441406 158.964844 C 223.964844 159.183594 222.542969 159.722656 221.1875 160.390625 C 220.347656 160.804688 219.527344 161.273438 218.734375 161.777344 C 217.621094 162.484375 216.550781 163.261719 215.507812 164.050781 C 218.351562 159.800781 221.042969 155.414062 223.515625 150.945312 C 223.753906 151.007812 224.015625 151.035156 224.273438 151.070312 C 225.335938 151.199219 226.527344 150.992188 227.441406 150.949219 C 230.054688 150.789062 233.179688 150.3125 235.945312 149.277344 C 237.894531 148.542969 239.664062 147.539062 240.976562 146.195312 C 241.257812 145.910156 241.519531 145.597656 241.753906 145.265625 C 241.984375 144.945312 242.191406 144.605469 242.382812 144.253906 C 242.535156 143.960938 242.679688 143.65625 242.8125 143.34375 C 242.945312 143.03125 243.058594 142.714844 243.160156 142.390625 C 243.523438 141.226562 243.441406 140.386719 243.152344 139.800781 C 242.84375 139.175781 242.289062 138.765625 241.546875 138.570312 C 239.292969 137.976562 234.800781 139.695312 233.507812 140.320312 C 232.550781 140.78125 231.621094 141.28125 230.714844 141.835938 C 229.804688 142.386719 228.925781 142.984375 228.085938 143.632812 C 227.664062 143.96875 227.234375 144.316406 226.804688 144.675781 C 227.5 143.277344 228.171875 141.871094 228.816406 140.460938 C 230.4375 136.917969 231.890625 133.34375 233.140625 129.773438 C 233.949219 129.792969 234.753906 129.597656 235.558594 129.464844 C 237.171875 129.199219 238.757812 128.777344 240.265625 128.207031 C 241.378906 127.78125 242.535156 127.363281 243.640625 126.871094 C 244.410156 126.53125 245.15625 126.152344 245.863281 125.710938 C 246.769531 125.144531 247.628906 124.433594 248.324219 123.589844 C 249.042969 122.722656 249.589844 121.714844 249.855469 120.597656 C 250.15625 119.351562 249.910156 118.023438 249.238281 117.003906 C 248.550781 115.957031 247.429688 115.214844 246.003906 115.191406 C 245.183594 115.175781 244.386719 115.425781 243.640625 115.816406 C 242.664062 116.328125 241.765625 117.097656 241.003906 117.726562 C 239.46875 119 237.984375 120.296875 236.644531 121.734375 C 236.109375 122.308594 235.601562 122.90625 235.117188 123.527344 C 236.460938 118.765625 237.433594 114.035156 237.933594 109.390625 C 238.027344 109.230469 238.042969 109.050781 238 108.882812 C 238.023438 108.878906 238.042969 108.875 238.0625 108.875 C 238.371094 108.847656 238.671875 108.796875 238.96875 108.742188 C 240.769531 108.414062 242.46875 107.933594 244.054688 107.261719 C 246.070312 106.40625 247.882812 105.160156 249.429688 103.148438 C 250.25 102.058594 250.945312 99.398438 250.535156 97.558594 C 250.339844 96.675781 249.910156 95.96875 249.246094 95.570312 C 248.691406 95.234375 247.949219 95.082031 246.964844 95.328125 C 245.652344 95.65625 244.445312 96.453125 243.375 97.476562 C 241.914062 98.871094 240.695312 100.675781 239.710938 102.085938 C 239.082031 102.992188 238.625 103.871094 238.273438 104.765625 C 238.378906 102.011719 238.296875 99.300781 238.011719 96.636719 C 237.757812 94.308594 237.375 92.003906 236.761719 89.777344 C 236.855469 89.660156 236.945312 89.535156 237.046875 89.4375 L 237.457031 89.023438 C 237.980469 88.644531 238.578125 88.191406 238.929688 87.824219 C 239.46875 87.253906 239.953125 86.644531 240.398438 86 C 241.035156 85.074219 241.59375 84.085938 242.179688 83.121094 C 242.644531 82.351562 243.117188 81.582031 243.566406 80.800781 C 243.871094 80.269531 244.164062 79.738281 244.441406 79.191406 C 244.847656 78.386719 245.261719 77.464844 245.484375 76.523438 C 245.648438 75.835938 245.714844 75.136719 245.625 74.457031 C 245.503906 73.496094 244.960938 72.785156 244.242188 72.40625 C 243.550781 72.035156 242.679688 71.96875 241.871094 72.308594 C 241.269531 72.5625 240.703125 73.003906 240.183594 73.53125 C 239.496094 74.21875 238.886719 75.050781 238.371094 75.691406 C 236.742188 77.695312 235.53125 79.882812 234.972656 82.214844 C 234.757812 83.121094 234.640625 84.050781 234.628906 84.996094 C 233.664062 83.214844 232.429688 81.683594 230.929688 80.5625 C 229.324219 79.367188 227.410156 78.632812 225.148438 78.585938 C 223.914062 78.554688 222.152344 79.15625 221.160156 80.203125 C 220.375 81.03125 220.035156 82.105469 220.582031 83.351562 C 220.867188 83.996094 221.316406 84.550781 221.855469 85.03125 C 222.582031 85.675781 223.476562 86.179688 224.269531 86.59375 C 224.929688 86.9375 225.59375 87.226562 226.269531 87.480469 C 226.945312 87.726562 227.632812 87.9375 228.34375 88.113281 C 229.570312 88.421875 230.808594 88.773438 232.046875 89.082031 C 232.589844 89.214844 233.132812 89.34375 233.675781 89.453125 C 234.199219 89.546875 234.835938 89.582031 235.363281 89.519531 C 235.382812 89.574219 235.402344 89.632812 235.421875 89.6875 C 235.582031 90.082031 235.574219 90.804688 235.75 91.359375 C 235.785156 91.464844 235.824219 91.570312 235.863281 91.664062 C 236.136719 93.332031 236.34375 95.019531 236.464844 96.730469 C 236.644531 99.3125 236.660156 101.941406 236.507812 104.609375 C 236.382812 104.324219 236.246094 104.050781 236.113281 103.777344 C 235.613281 102.753906 235.03125 101.804688 234.324219 100.941406 C 233.390625 99.792969 232.210938 98.804688 230.5625 98.046875 C 229.777344 97.683594 228.84375 97.289062 227.910156 97.101562 C 227.210938 96.960938 226.507812 96.933594 225.855469 97.097656 C 224.71875 97.375 224.027344 98.25 223.765625 99.296875 C 223.523438 100.273438 223.671875 101.398438 224.160156 102.246094 C 225.027344 103.746094 226.191406 104.820312 227.519531 105.648438 C 230.121094 107.265625 233.332031 108.039062 236.09375 109.242188 C 235.703125 112.371094 235.109375 115.535156 234.316406 118.71875 C 234.042969 119.8125 233.75 120.90625 233.4375 122.003906 Z M 233.4375 122.003906 " fill-opacity="1" fill-rule="evenodd"/></g></g></g></svg>