<svg xmlns="http://www.w3.org/2000/svg" xmlns:xlink="http://www.w3.org/1999/xlink" width="335" zoomAndPan="magnify" viewBox="0 0 251.25 295.500005" height="394" preserveAspectRatio="xMidYMid meet" version="1.0"><defs><clipPath id="fe8511cbf8"><path d="M 42 84 L 161 84 L 161 179 L 42 179 Z M 42 84 " clip-rule="nonzero"/></clipPath><clipPath id="5dfa048fff"><path d="M 34.972656 90.148438 L 102.097656 53.933594 L 167.074219 174.367188 L 99.949219 210.582031 Z M 34.972656 90.148438 " clip-rule="nonzero"/></clipPath><clipPath id="69dbde6f52"><path d="M 34.972656 90.148438 L 102.097656 53.933594 L 167.074219 174.367188 L 99.949219 210.582031 Z M 34.972656 90.148438 " clip-rule="nonzero"/></clipPath><clipPath id="2384054c3a"><path d="M 61 151 L 160 151 L 160 268 L 61 268 Z M 61 151 " clip-rule="nonzero"/></clipPath><clipPath id="f698fe6385"><path d="M 55.554688 154.027344 L 128.96875 133.339844 L 166.085938 265.050781 L 92.675781 285.738281 Z M 55.554688 154.027344 " clip-rule="nonzero"/></clipPath><clipPath id="55b57e8bc3"><path d="M 55.554688 154.027344 L 128.96875 133.339844 L 166.085938 265.050781 L 92.675781 285.738281 Z M 55.554688 154.027344 " clip-rule="nonzero"/></clipPath><clipPath id="9d05418d67"><path d="M 74 43 L 200 43 L 200 130 L 74 130 Z M 74 43 " clip-rule="nonzero"/></clipPath><clipPath id="76fdd88376"><path d="M 67.261719 51.246094 L 131.265625 9.765625 L 205.691406 124.597656 L 141.6875 166.078125 Z M 67.261719 51.246094 " clip-rule="nonzero"/></clipPath><clipPath id="c221d4bb8a"><path d="M 67.261719 51.246094 L 131.265625 9.765625 L 205.691406 124.597656 L 141.6875 166.078125 Z M 67.261719 51.246094 " clip-rule="nonzero"/></clipPath></defs><g clip-path="url(#fe8511cbf8)"><g clip-path="url(#5dfa048fff)"><g clip-path="url(#69dbde6f52)"><path fill="#b28551" d="M 89.59375 106.457031 C 89.402344 106.433594 89.214844 106.40625 89.035156 106.386719 C 87.21875 106.199219 84.152344 106.507812 81.609375 107.464844 C 79.714844 108.175781 78.125 109.261719 77.410156 110.683594 C 76.601562 112.292969 77.191406 113.804688 78.445312 114.996094 C 80.050781 116.515625 82.777344 117.433594 84.351562 117.261719 C 85.476562 117.144531 86.585938 116.785156 87.664062 116.308594 C 89.140625 115.65625 90.566406 114.785156 91.941406 114.121094 C 93.132812 113.535156 94.480469 112.929688 95.585938 112.070312 C 96.117188 111.664062 96.65625 111.230469 97.019531 110.691406 C 99.855469 112.449219 102.660156 114.355469 105.425781 116.375 C 105.964844 116.769531 106.496094 117.164062 107.023438 117.5625 C 105.859375 117.273438 104.621094 117.089844 103.378906 117.027344 C 101.179688 116.917969 98.957031 117.191406 97.066406 117.953125 C 95.488281 118.582031 93.097656 120.316406 92.328125 122.082031 C 91.707031 123.503906 91.914062 124.996094 94.046875 126.113281 C 94.519531 126.363281 95.050781 126.550781 95.601562 126.691406 C 96.363281 126.882812 97.164062 126.988281 97.902344 127.070312 C 100.410156 127.351562 102.609375 127.148438 104.734375 126.597656 C 106.828125 126.050781 108.855469 125.15625 111.03125 124.03125 C 111.90625 123.566406 112.847656 123.308594 113.714844 122.882812 C 117.367188 125.953125 120.910156 129.195312 124.324219 132.542969 C 122.390625 131.574219 120.5 130.957031 118.578125 130.765625 C 116.441406 130.554688 114.253906 130.863281 111.910156 131.824219 C 111.277344 132.082031 109.875 132.550781 109.019531 133.214844 C 108.40625 133.6875 108.050781 134.269531 108.046875 134.898438 C 108.042969 135.503906 108.34375 136.15625 108.847656 136.777344 C 109.671875 137.789062 111.054688 138.746094 111.753906 139.234375 C 113.675781 140.609375 115.898438 141.09375 118.210938 141.050781 C 121.4375 140.988281 124.832031 139.859375 127.734375 138.890625 C 128.34375 138.679688 129.058594 138.375 129.714844 138.042969 C 132.691406 141.195312 135.539062 144.410156 138.238281 147.628906 C 135.355469 146.417969 130.828125 145.058594 126.9375 145.367188 C 123.949219 145.605469 121.328125 146.804688 119.902344 149.671875 C 119.503906 150.449219 119.570312 151.226562 119.890625 151.929688 C 120.277344 152.785156 121.101562 153.535156 121.8125 154.019531 C 123.296875 155.027344 125.027344 155.59375 126.832031 155.824219 C 128.582031 156.046875 130.398438 155.949219 132.109375 155.675781 C 133.0625 155.519531 133.984375 155.242188 134.886719 154.910156 C 136.832031 154.179688 138.683594 153.132812 140.640625 152.433594 C 140.984375 152.3125 141.359375 152.105469 141.710938 151.890625 C 143.179688 153.738281 144.597656 155.585938 145.957031 157.417969 C 149.628906 162.367188 152.855469 167.230469 155.65625 171.773438 C 157.023438 173.988281 158.320312 176.105469 159.453125 178.160156 C 159.605469 178.460938 159.988281 178.578125 160.304688 178.421875 C 160.621094 178.261719 160.75 177.878906 160.59375 177.574219 C 159.589844 175.421875 158.488281 173.167969 157.203125 170.871094 C 154.574219 166.164062 151.328125 161.222656 147.671875 156.183594 C 146.378906 154.398438 145.027344 152.605469 143.621094 150.804688 C 143.753906 150.675781 143.84375 150.199219 143.855469 150.179688 C 143.855469 150.179688 144.195312 149.171875 144.195312 149.171875 L 145.175781 145.679688 C 145.796875 143.589844 146.359375 141.523438 146.457031 139.445312 C 146.523438 138.015625 146.371094 136.578125 145.871094 135.121094 C 145.625 134.386719 145.171875 133.394531 144.519531 132.730469 C 143.953125 132.148438 143.238281 131.800781 142.390625 131.863281 C 141.417969 131.9375 140.695312 132.5625 140.230469 133.519531 C 139.527344 134.957031 139.445312 137.242188 139.425781 138.148438 C 139.394531 140.78125 139.625 143.875 140.382812 146.757812 C 137.761719 143.566406 134.992188 140.390625 132.089844 137.269531 C 132.175781 136.960938 132.265625 136.65625 132.324219 136.328125 C 132.359375 136.140625 132.367188 135.953125 132.386719 135.769531 C 132.648438 133.242188 132.917969 130.707031 133.121094 128.175781 C 133.242188 126.582031 133.320312 124.914062 133.175781 123.285156 C 133.078125 122.15625 132.875 121.046875 132.519531 119.984375 C 131.796875 117.855469 130.066406 116.007812 128.445312 115.835938 C 127.226562 115.707031 125.882812 116.3125 124.957031 118.476562 C 124.53125 119.488281 124.316406 120.519531 124.257812 121.554688 C 124.183594 123.042969 124.433594 124.542969 124.820312 126.003906 C 125.058594 126.910156 125.359375 127.804688 125.699219 128.679688 C 126.175781 129.910156 126.726562 131.113281 127.292969 132.289062 C 123.683594 128.664062 119.914062 125.167969 116.015625 121.867188 C 116.128906 121.644531 116.203125 121.390625 116.285156 121.148438 C 116.621094 120.128906 116.65625 118.925781 116.792969 118.019531 C 117.148438 115.421875 117.292969 112.265625 116.824219 109.355469 C 116.488281 107.300781 115.847656 105.367188 114.789062 103.8125 C 114.566406 103.484375 114.3125 103.167969 114.03125 102.871094 C 113.761719 102.578125 113.46875 102.3125 113.164062 102.054688 C 112.90625 101.847656 112.636719 101.644531 112.355469 101.457031 C 112.074219 101.265625 111.785156 101.089844 111.492188 100.925781 C 110.421875 100.34375 109.582031 100.257812 108.949219 100.425781 C 108.273438 100.605469 107.765625 101.070312 107.425781 101.757812 C 106.402344 103.851562 107.207031 108.59375 107.5625 109.984375 C 107.828125 111.011719 108.136719 112.023438 108.5 113.019531 C 108.863281 114.019531 109.277344 115 109.746094 115.949219 C 109.992188 116.429688 110.25 116.917969 110.519531 117.410156 C 109.28125 116.453125 108.035156 115.519531 106.78125 114.609375 C 103.625 112.324219 100.410156 110.199219 97.152344 108.273438 C 97.332031 107.484375 97.296875 106.65625 97.324219 105.839844 C 97.378906 104.207031 97.28125 102.570312 97.015625 100.980469 C 96.816406 99.800781 96.632812 98.589844 96.371094 97.410156 C 96.183594 96.585938 95.960938 95.78125 95.667969 95.003906 C 95.289062 94.003906 94.761719 93.019531 94.074219 92.171875 C 93.363281 91.296875 92.484375 90.5625 91.441406 90.082031 C 90.277344 89.542969 88.929688 89.523438 87.796875 89.984375 C 86.632812 90.453125 85.683594 91.40625 85.386719 92.796875 C 85.207031 93.601562 85.296875 94.429688 85.53125 95.238281 C 85.84375 96.296875 86.417969 97.328125 86.886719 98.199219 C 87.832031 99.953125 88.8125 101.664062 89.960938 103.257812 C 90.417969 103.894531 90.902344 104.511719 91.417969 105.109375 C 87.015625 102.855469 82.566406 100.972656 78.113281 99.570312 L 78.109375 99.570312 C 77.972656 99.449219 77.800781 99.394531 77.625 99.402344 C 77.628906 99.382812 77.628906 99.359375 77.632812 99.34375 C 77.667969 99.035156 77.671875 98.730469 77.679688 98.429688 C 77.710938 96.597656 77.574219 94.839844 77.226562 93.148438 C 76.785156 91.007812 75.917969 88.984375 74.25 87.074219 C 73.34375 86.054688 70.871094 84.855469 68.988281 84.890625 C 68.085938 84.910156 67.308594 85.195312 66.785156 85.765625 C 66.347656 86.242188 66.050781 86.945312 66.101562 87.953125 C 66.164062 89.308594 66.707031 90.644531 67.5 91.894531 C 68.582031 93.601562 70.113281 95.152344 71.300781 96.394531 C 72.0625 97.1875 72.835938 97.808594 73.644531 98.328125 C 70.964844 97.683594 68.292969 97.234375 65.625 96.988281 C 63.289062 96.78125 60.960938 96.703125 58.65625 96.867188 C 58.558594 96.753906 58.453125 96.640625 58.378906 96.523438 L 58.050781 96.039062 C 57.78125 95.449219 57.453125 94.777344 57.164062 94.359375 C 56.710938 93.71875 56.210938 93.121094 55.667969 92.5625 C 54.882812 91.753906 54.023438 91.015625 53.191406 90.246094 C 52.53125 89.640625 51.867188 89.027344 51.191406 88.433594 C 50.730469 88.03125 50.265625 87.640625 49.785156 87.261719 C 49.078125 86.703125 48.253906 86.113281 47.375 85.710938 C 46.734375 85.417969 46.0625 85.214844 45.375 85.167969 C 44.410156 85.101562 43.609375 85.492188 43.09375 86.121094 C 42.59375 86.730469 42.359375 87.566406 42.53125 88.429688 C 42.664062 89.070312 42.984375 89.710938 43.398438 90.324219 C 43.941406 91.132812 44.636719 91.890625 45.164062 92.523438 C 46.804688 94.511719 48.710938 96.132812 50.886719 97.132812 C 51.738281 97.523438 52.625 97.824219 53.546875 98.019531 C 51.613281 98.617188 49.871094 99.523438 48.476562 100.777344 C 46.988281 102.113281 45.894531 103.847656 45.402344 106.054688 C 45.132812 107.257812 45.375 109.105469 46.203125 110.28125 C 46.863281 111.214844 47.847656 111.757812 49.179688 111.464844 C 49.863281 111.316406 50.5 110.984375 51.074219 110.546875 C 51.847656 109.960938 52.515625 109.183594 53.078125 108.488281 C 53.546875 107.910156 53.960938 107.316406 54.339844 106.703125 C 54.71875 106.089844 55.058594 105.457031 55.371094 104.792969 C 55.910156 103.652344 56.5 102.507812 57.046875 101.355469 C 57.285156 100.847656 57.515625 100.339844 57.730469 99.828125 C 57.921875 99.335938 58.085938 98.714844 58.128906 98.1875 C 58.183594 98.179688 58.246094 98.171875 58.304688 98.160156 C 58.71875 98.085938 59.429688 98.234375 60.007812 98.167969 C 60.117188 98.15625 60.226562 98.140625 60.328125 98.117188 C 62.015625 98.179688 63.710938 98.308594 65.414062 98.523438 C 67.980469 98.855469 70.558594 99.355469 73.144531 100.027344 C 72.84375 100.097656 72.546875 100.175781 72.253906 100.253906 C 71.152344 100.542969 70.105469 100.925781 69.121094 101.449219 C 67.8125 102.136719 66.609375 103.101562 65.542969 104.566406 C 65.035156 105.265625 64.464844 106.105469 64.097656 106.984375 C 63.820312 107.640625 63.65625 108.324219 63.6875 108.996094 C 63.734375 110.164062 64.457031 111.015625 65.433594 111.480469 C 66.34375 111.90625 67.476562 111.980469 68.40625 111.671875 C 70.046875 111.117188 71.324219 110.183594 72.398438 109.042969 C 74.496094 106.8125 75.882812 103.816406 77.605469 101.347656 C 80.59375 102.34375 83.578125 103.546875 86.546875 104.949219 C 87.566406 105.429688 88.582031 105.933594 89.59375 106.457031 Z M 89.59375 106.457031 " fill-opacity="1" fill-rule="evenodd"/></g></g></g><g clip-path="url(#2384054c3a)"><g clip-path="url(#f698fe6385)"><g clip-path="url(#55b57e8bc3)"><path fill="#b28551" d="M 105.300781 181.863281 C 105.121094 181.800781 104.941406 181.734375 104.773438 181.675781 C 103.039062 181.097656 99.976562 180.730469 97.289062 181.105469 C 95.285156 181.386719 93.496094 182.097656 92.488281 183.332031 C 91.347656 184.722656 91.59375 186.328125 92.558594 187.765625 C 93.792969 189.601562 96.253906 191.089844 97.824219 191.265625 C 98.953125 191.398438 100.109375 191.289062 101.265625 191.058594 C 102.851562 190.746094 104.433594 190.203125 105.917969 189.855469 C 107.207031 189.546875 108.660156 189.25 109.925781 188.652344 C 110.53125 188.371094 111.152344 188.066406 111.625 187.617188 C 114.007812 189.953125 116.328125 192.425781 118.585938 195.003906 C 119.023438 195.503906 119.457031 196.003906 119.886719 196.507812 C 118.8125 195.972656 117.644531 195.523438 116.445312 195.191406 C 114.324219 194.601562 112.09375 194.382812 110.082031 194.714844 C 108.40625 194.984375 105.695312 196.15625 104.558594 197.710938 C 103.640625 198.964844 103.519531 200.464844 105.355469 202.019531 C 105.761719 202.367188 106.238281 202.664062 106.746094 202.921875 C 107.449219 203.277344 108.207031 203.554688 108.910156 203.792969 C 111.296875 204.617188 113.484375 204.898438 115.679688 204.824219 C 117.84375 204.75 120.015625 204.320312 122.382812 203.695312 C 123.339844 203.429688 124.316406 203.386719 125.253906 203.160156 C 128.148438 206.953125 130.902344 210.890625 133.5 214.90625 C 131.824219 213.535156 130.113281 212.519531 128.28125 211.917969 C 126.238281 211.242188 124.039062 211.070312 121.542969 211.492188 C 120.867188 211.605469 119.394531 211.757812 118.417969 212.21875 C 117.714844 212.546875 117.238281 213.039062 117.097656 213.648438 C 116.964844 214.242188 117.117188 214.945312 117.472656 215.65625 C 118.054688 216.824219 119.199219 218.058594 119.773438 218.691406 C 121.347656 220.453125 123.410156 221.410156 125.675781 221.871094 C 128.839844 222.515625 132.398438 222.15625 135.441406 221.84375 C 136.082031 221.773438 136.84375 221.628906 137.558594 221.445312 C 139.773438 225.175781 141.851562 228.933594 143.78125 232.664062 C 141.238281 230.851562 137.117188 228.535156 133.25 227.992188 C 130.28125 227.570312 127.460938 228.167969 125.445312 230.65625 C 124.886719 231.328125 124.785156 232.097656 124.941406 232.855469 C 125.132812 233.773438 125.773438 234.6875 126.359375 235.3125 C 127.589844 236.621094 129.15625 237.550781 130.863281 238.171875 C 132.523438 238.773438 134.316406 239.074219 136.046875 239.179688 C 137.011719 239.234375 137.96875 239.164062 138.921875 239.035156 C 140.984375 238.75 143.015625 238.132812 145.082031 237.878906 C 145.441406 237.835938 145.855469 237.714844 146.242188 237.578125 C 147.273438 239.703125 148.253906 241.816406 149.179688 243.902344 C 151.683594 249.53125 153.769531 254.984375 155.511719 260.03125 C 156.363281 262.488281 157.164062 264.835938 157.824219 267.089844 C 157.90625 267.414062 158.253906 267.617188 158.597656 267.53125 C 158.941406 267.441406 159.148438 267.101562 159.0625 266.769531 C 158.554688 264.449219 157.96875 262.007812 157.21875 259.488281 C 155.679688 254.316406 153.59375 248.789062 151.125 243.070312 C 150.25 241.046875 149.324219 239 148.347656 236.9375 C 148.5 236.84375 148.695312 236.398438 148.710938 236.378906 C 148.710938 236.378906 149.261719 235.46875 149.261719 235.46875 L 150.980469 232.277344 C 152.042969 230.371094 153.042969 228.476562 153.589844 226.472656 C 153.96875 225.089844 154.136719 223.652344 153.964844 222.125 C 153.882812 221.351562 153.660156 220.285156 153.167969 219.496094 C 152.738281 218.804688 152.117188 218.308594 151.28125 218.1875 C 150.3125 218.046875 149.472656 218.5 148.808594 219.332031 C 147.808594 220.578125 147.230469 222.789062 147.011719 223.667969 C 146.40625 226.234375 145.957031 229.300781 146.066406 232.28125 C 144.207031 228.597656 142.195312 224.890625 140.046875 221.210938 C 140.199219 220.929688 140.351562 220.648438 140.480469 220.34375 C 140.554688 220.171875 140.605469 219.988281 140.664062 219.8125 C 141.46875 217.402344 142.285156 214.988281 143.039062 212.5625 C 143.503906 211.03125 143.941406 209.421875 144.160156 207.804688 C 144.308594 206.679688 144.355469 205.550781 144.238281 204.4375 C 144 202.203125 142.714844 200.019531 141.167969 199.5 C 140.007812 199.109375 138.5625 199.40625 137.1875 201.316406 C 136.550781 202.210938 136.113281 203.167969 135.835938 204.167969 C 135.433594 205.601562 135.351562 207.121094 135.410156 208.628906 C 135.445312 209.566406 135.546875 210.503906 135.683594 211.433594 C 135.878906 212.738281 136.15625 214.03125 136.453125 215.304688 C 133.722656 210.980469 130.804688 206.742188 127.722656 202.671875 C 127.878906 202.480469 128.007812 202.25 128.144531 202.027344 C 128.691406 201.109375 128.988281 199.941406 129.320312 199.085938 C 130.230469 196.632812 131.066406 193.582031 131.242188 190.636719 C 131.363281 188.558594 131.160156 186.535156 130.464844 184.785156 C 130.320312 184.414062 130.140625 184.050781 129.933594 183.699219 C 129.730469 183.359375 129.507812 183.03125 129.261719 182.714844 C 129.058594 182.457031 128.835938 182.199219 128.605469 181.953125 C 128.371094 181.707031 128.128906 181.472656 127.878906 181.25 C 126.960938 180.445312 126.160156 180.179688 125.503906 180.207031 C 124.808594 180.234375 124.210938 180.574219 123.726562 181.171875 C 122.273438 182.992188 122.023438 187.796875 122.066406 189.230469 C 122.101562 190.289062 122.179688 191.34375 122.316406 192.398438 C 122.453125 193.449219 122.644531 194.496094 122.898438 195.527344 C 123.03125 196.050781 123.175781 196.585938 123.328125 197.125 C 122.332031 195.917969 121.320312 194.738281 120.292969 193.574219 C 117.714844 190.65625 115.039062 187.878906 112.28125 185.289062 C 112.628906 184.554688 112.777344 183.742188 112.980469 182.953125 C 113.390625 181.367188 113.648438 179.753906 113.738281 178.140625 C 113.800781 176.949219 113.890625 175.726562 113.890625 174.515625 C 113.886719 173.671875 113.847656 172.839844 113.730469 172.015625 C 113.578125 170.957031 113.277344 169.882812 112.792969 168.902344 C 112.289062 167.894531 111.589844 166.984375 110.679688 166.289062 C 109.660156 165.511719 108.347656 165.195312 107.144531 165.394531 C 105.90625 165.601562 104.773438 166.324219 104.175781 167.617188 C 103.828125 168.359375 103.730469 169.191406 103.785156 170.03125 C 103.859375 171.132812 104.195312 172.261719 104.464844 173.21875 C 105.003906 175.132812 105.585938 177.019531 106.359375 178.824219 C 106.664062 179.546875 107.003906 180.253906 107.375 180.949219 C 103.570312 177.789062 99.640625 174.980469 95.597656 172.636719 C 95.492188 172.488281 95.332031 172.398438 95.164062 172.371094 C 95.167969 172.347656 95.171875 172.328125 95.179688 172.3125 C 95.28125 172.019531 95.355469 171.726562 95.425781 171.429688 C 95.855469 169.648438 96.109375 167.90625 96.136719 166.179688 C 96.171875 163.992188 95.769531 161.832031 94.558594 159.601562 C 93.894531 158.410156 91.746094 156.695312 89.898438 156.324219 C 89.015625 156.144531 88.195312 156.25 87.558594 156.695312 C 87.027344 157.066406 86.585938 157.683594 86.414062 158.679688 C 86.179688 160.015625 86.417969 161.441406 86.917969 162.832031 C 87.601562 164.734375 88.757812 166.582031 89.644531 168.054688 C 90.21875 168.992188 90.835938 169.765625 91.511719 170.449219 C 89.039062 169.238281 86.527344 168.214844 83.976562 167.394531 C 81.746094 166.683594 79.488281 166.097656 77.203125 165.753906 C 77.132812 165.621094 77.050781 165.488281 77.007812 165.355469 L 76.792969 164.8125 C 76.660156 164.179688 76.488281 163.449219 76.292969 162.980469 C 75.992188 162.257812 75.632812 161.566406 75.226562 160.902344 C 74.636719 159.941406 73.957031 159.03125 73.316406 158.101562 C 72.804688 157.363281 72.289062 156.621094 71.757812 155.894531 C 71.398438 155.398438 71.027344 154.917969 70.644531 154.445312 C 70.074219 153.742188 69.398438 152.992188 68.628906 152.40625 C 68.066406 151.976562 67.457031 151.632812 66.796875 151.4375 C 65.871094 151.160156 65 151.367188 64.363281 151.871094 C 63.742188 152.351562 63.328125 153.121094 63.308594 154 C 63.296875 154.652344 63.472656 155.347656 63.742188 156.039062 C 64.09375 156.941406 64.605469 157.835938 64.984375 158.570312 C 66.152344 160.871094 67.660156 162.863281 69.5625 164.320312 C 70.308594 164.882812 71.109375 165.371094 71.964844 165.761719 C 69.945312 165.921875 68.046875 166.429688 66.414062 167.347656 C 64.671875 168.328125 63.226562 169.78125 62.261719 171.824219 C 61.734375 172.941406 61.570312 174.796875 62.125 176.125 C 62.5625 177.179688 63.40625 177.925781 64.765625 177.929688 C 65.46875 177.933594 66.160156 177.75 66.816406 177.449219 C 67.703125 177.046875 68.523438 176.433594 69.222656 175.875 C 69.804688 175.414062 70.339844 174.925781 70.84375 174.410156 C 71.347656 173.894531 71.816406 173.351562 72.265625 172.773438 C 73.042969 171.773438 73.871094 170.785156 74.652344 169.78125 C 74.996094 169.339844 75.332031 168.894531 75.652344 168.441406 C 75.949219 168.003906 76.242188 167.433594 76.398438 166.929688 C 76.457031 166.929688 76.519531 166.9375 76.578125 166.941406 C 77 166.957031 77.660156 167.257812 78.234375 167.320312 C 78.347656 167.332031 78.457031 167.339844 78.5625 167.339844 C 80.195312 167.769531 81.820312 168.261719 83.433594 168.847656 C 85.871094 169.726562 88.277344 170.78125 90.652344 172.003906 C 90.339844 172.003906 90.035156 172.015625 89.730469 172.023438 C 88.59375 172.066406 87.492188 172.214844 86.414062 172.507812 C 84.988281 172.894531 83.605469 173.574219 82.242188 174.769531 C 81.59375 175.34375 80.855469 176.039062 80.304688 176.8125 C 79.890625 177.394531 79.582031 178.027344 79.464844 178.691406 C 79.257812 179.839844 79.777344 180.828125 80.628906 181.492188 C 81.421875 182.109375 82.511719 182.429688 83.484375 182.328125 C 85.207031 182.144531 86.65625 181.515625 87.953125 180.636719 C 90.488281 178.914062 92.496094 176.296875 94.714844 174.261719 C 97.417969 175.886719 100.066406 177.710938 102.65625 179.730469 C 103.546875 180.421875 104.425781 181.132812 105.300781 181.863281 Z M 105.300781 181.863281 " fill-opacity="1" fill-rule="evenodd"/></g></g></g><g clip-path="url(#9d05418d67)"><g clip-path="url(#76fdd88376)"><g clip-path="url(#c221d4bb8a)"><path fill="#b28551" d="M 123.011719 63.121094 C 122.824219 63.109375 122.632812 63.101562 122.453125 63.097656 C 120.628906 63.054688 117.59375 63.609375 115.136719 64.765625 C 113.304688 65.628906 111.808594 66.835938 111.210938 68.308594 C 110.53125 69.980469 111.242188 71.4375 112.589844 72.523438 C 114.3125 73.914062 117.101562 74.609375 118.65625 74.3125 C 119.769531 74.105469 120.84375 73.65625 121.882812 73.09375 C 123.300781 72.328125 124.652344 71.34375 125.96875 70.570312 C 127.109375 69.894531 128.40625 69.179688 129.4375 68.234375 C 129.933594 67.785156 130.4375 67.3125 130.757812 66.746094 C 133.722656 68.269531 136.671875 69.945312 139.59375 71.738281 C 140.160156 72.089844 140.71875 72.4375 141.28125 72.789062 C 140.09375 72.597656 138.847656 72.511719 137.605469 72.550781 C 135.402344 72.617188 133.207031 73.066406 131.382812 73.980469 C 129.859375 74.734375 127.621094 76.65625 126.992188 78.476562 C 126.488281 79.945312 126.816406 81.414062 129.027344 82.359375 C 129.523438 82.566406 130.066406 82.710938 130.625 82.808594 C 131.402344 82.9375 132.210938 82.976562 132.949219 83 C 135.472656 83.082031 137.648438 82.703125 139.722656 81.980469 C 141.765625 81.269531 143.710938 80.214844 145.792969 78.917969 C 146.625 78.382812 147.546875 78.050781 148.375 77.558594 C 152.261719 80.324219 156.054688 83.273438 159.726562 86.335938 C 157.71875 85.527344 155.789062 85.0625 153.859375 85.027344 C 151.707031 84.988281 149.554688 85.472656 147.296875 86.617188 C 146.683594 86.925781 145.324219 87.503906 144.523438 88.234375 C 143.953125 88.753906 143.640625 89.363281 143.6875 89.992188 C 143.734375 90.59375 144.085938 91.222656 144.636719 91.796875 C 145.542969 92.738281 146.996094 93.582031 147.734375 94.015625 C 149.757812 95.230469 152.011719 95.535156 154.3125 95.308594 C 157.523438 94.984375 160.820312 93.589844 163.632812 92.390625 C 164.222656 92.132812 164.910156 91.769531 165.539062 91.386719 C 168.757812 94.292969 171.855469 97.265625 174.804688 100.257812 C 171.835938 99.28125 167.214844 98.289062 163.359375 98.910156 C 160.402344 99.386719 157.882812 100.792969 156.691406 103.765625 C 156.359375 104.574219 156.488281 105.339844 156.863281 106.019531 C 157.316406 106.839844 158.195312 107.519531 158.945312 107.945312 C 160.507812 108.832031 162.277344 109.257812 164.089844 109.34375 C 165.855469 109.425781 167.660156 109.183594 169.339844 108.769531 C 170.277344 108.539062 171.171875 108.191406 172.046875 107.785156 C 173.929688 106.898438 175.691406 105.710938 177.585938 104.855469 C 177.917969 104.707031 178.277344 104.46875 178.605469 104.226562 C 180.21875 105.949219 181.78125 107.679688 183.285156 109.398438 C 187.339844 114.035156 190.949219 118.625 194.105469 122.929688 C 195.644531 125.027344 197.105469 127.03125 198.398438 128.988281 C 198.578125 129.277344 198.96875 129.363281 199.269531 129.179688 C 199.570312 128.996094 199.671875 128.605469 199.492188 128.316406 C 198.320312 126.25 197.035156 124.089844 195.574219 121.90625 C 192.574219 117.421875 188.945312 112.757812 184.894531 108.03125 C 183.460938 106.355469 181.96875 104.671875 180.425781 102.992188 C 180.546875 102.855469 180.601562 102.371094 180.609375 102.351562 C 180.609375 102.351562 180.867188 101.316406 180.867188 101.316406 L 181.566406 97.757812 C 182.015625 95.625 182.410156 93.519531 182.339844 91.441406 C 182.292969 90.011719 182.027344 88.589844 181.410156 87.179688 C 181.105469 86.464844 180.574219 85.511719 179.871094 84.902344 C 179.257812 84.371094 178.519531 84.082031 177.679688 84.210938 C 176.714844 84.363281 176.046875 85.042969 175.660156 86.035156 C 175.074219 87.523438 175.175781 89.808594 175.226562 90.710938 C 175.410156 93.339844 175.882812 96.402344 176.871094 99.214844 C 174.003906 96.246094 170.988281 93.304688 167.847656 90.425781 C 167.90625 90.109375 167.972656 89.796875 168.003906 89.46875 C 168.023438 89.28125 168.015625 89.089844 168.023438 88.90625 C 168.078125 86.363281 168.144531 83.816406 168.144531 81.277344 C 168.136719 79.679688 168.078125 78.011719 167.808594 76.398438 C 167.617188 75.28125 167.328125 74.191406 166.886719 73.160156 C 165.996094 71.097656 164.125 69.394531 162.492188 69.351562 C 161.269531 69.324219 159.976562 70.03125 159.230469 72.265625 C 158.882812 73.308594 158.75 74.351562 158.777344 75.390625 C 158.820312 76.878906 159.191406 78.355469 159.695312 79.777344 C 160.007812 80.660156 160.378906 81.53125 160.785156 82.375 C 161.359375 83.566406 162.003906 84.71875 162.667969 85.84375 C 158.777344 82.523438 154.738281 79.339844 150.589844 76.359375 C 150.679688 76.128906 150.738281 75.871094 150.800781 75.621094 C 151.054688 74.582031 150.988281 73.375 151.050781 72.464844 C 151.199219 69.847656 151.09375 66.691406 150.386719 63.824219 C 149.890625 61.804688 149.097656 59.929688 147.917969 58.464844 C 147.667969 58.152344 147.386719 57.859375 147.085938 57.585938 C 146.792969 57.316406 146.480469 57.074219 146.15625 56.84375 C 145.882812 56.65625 145.597656 56.476562 145.300781 56.308594 C 145.007812 56.140625 144.707031 55.988281 144.398438 55.851562 C 143.285156 55.355469 142.441406 55.339844 141.824219 55.558594 C 141.164062 55.789062 140.695312 56.292969 140.414062 57.007812 C 139.558594 59.175781 140.742188 63.839844 141.210938 65.195312 C 141.554688 66.195312 141.945312 67.179688 142.386719 68.144531 C 142.828125 69.113281 143.320312 70.054688 143.867188 70.964844 C 144.144531 71.421875 144.441406 71.894531 144.75 72.359375 C 143.441406 71.503906 142.125 70.675781 140.800781 69.867188 C 137.472656 67.84375 134.09375 65.984375 130.695312 64.324219 C 130.808594 63.523438 130.710938 62.699219 130.671875 61.886719 C 130.59375 60.253906 130.363281 58.632812 129.972656 57.066406 C 129.679688 55.90625 129.402344 54.714844 129.042969 53.558594 C 128.792969 52.753906 128.507812 51.96875 128.152344 51.214844 C 127.695312 50.25 127.089844 49.3125 126.335938 48.523438 C 125.554688 47.707031 124.621094 47.046875 123.542969 46.652344 C 122.339844 46.207031 120.992188 46.296875 119.902344 46.84375 C 118.78125 47.40625 117.910156 48.429688 117.726562 49.84375 C 117.609375 50.65625 117.765625 51.476562 118.066406 52.265625 C 118.460938 53.292969 119.117188 54.273438 119.65625 55.105469 C 120.738281 56.777344 121.855469 58.40625 123.125 59.902344 C 123.632812 60.5 124.164062 61.078125 124.722656 61.628906 C 120.15625 59.738281 115.570312 58.21875 111.015625 57.175781 C 110.871094 57.066406 110.691406 57.027344 110.519531 57.050781 C 110.519531 57.027344 110.519531 57.007812 110.523438 56.988281 C 110.53125 56.679688 110.515625 56.375 110.496094 56.074219 C 110.378906 54.246094 110.101562 52.503906 109.621094 50.847656 C 109.007812 48.746094 107.980469 46.800781 106.167969 45.03125 C 105.179688 44.089844 102.621094 43.089844 100.746094 43.277344 C 99.847656 43.367188 99.09375 43.714844 98.621094 44.324219 C 98.222656 44.835938 97.984375 45.558594 98.113281 46.5625 C 98.285156 47.90625 98.933594 49.195312 99.824219 50.378906 C 101.039062 51.992188 102.6875 53.414062 103.972656 54.558594 C 104.796875 55.285156 105.617188 55.84375 106.464844 56.296875 C 103.742188 55.871094 101.042969 55.636719 98.363281 55.605469 C 96.019531 55.585938 93.691406 55.695312 91.40625 56.042969 C 91.300781 55.9375 91.1875 55.835938 91.105469 55.722656 L 90.738281 55.265625 C 90.421875 54.703125 90.042969 54.054688 89.71875 53.664062 C 89.21875 53.058594 88.667969 52.507812 88.082031 51.992188 C 87.238281 51.25 86.320312 50.582031 85.429688 49.882812 C 84.722656 49.332031 84.011719 48.769531 83.289062 48.234375 C 82.796875 47.871094 82.304688 47.519531 81.796875 47.179688 C 81.042969 46.679688 80.179688 46.160156 79.265625 45.828125 C 78.605469 45.585938 77.917969 45.4375 77.234375 45.449219 C 76.265625 45.457031 75.496094 45.910156 75.035156 46.582031 C 74.585938 47.226562 74.414062 48.078125 74.660156 48.925781 C 74.839844 49.550781 75.214844 50.164062 75.675781 50.746094 C 76.28125 51.503906 77.035156 52.207031 77.609375 52.792969 C 79.40625 54.648438 81.4375 56.105469 83.6875 56.933594 C 84.5625 57.253906 85.472656 57.480469 86.40625 57.601562 C 84.527344 58.351562 82.863281 59.398438 81.574219 60.757812 C 80.199219 62.210938 79.246094 64.023438 78.933594 66.261719 C 78.757812 67.484375 79.152344 69.304688 80.070312 70.414062 C 80.804688 71.289062 81.828125 71.75 83.128906 71.355469 C 83.804688 71.148438 84.410156 70.769531 84.949219 70.285156 C 85.671875 69.640625 86.277344 68.8125 86.78125 68.074219 C 87.199219 67.460938 87.566406 66.835938 87.894531 66.191406 C 88.222656 65.550781 88.511719 64.894531 88.769531 64.207031 C 89.214844 63.023438 89.710938 61.835938 90.164062 60.644531 C 90.359375 60.121094 90.550781 59.59375 90.722656 59.070312 C 90.875 58.5625 90.988281 57.933594 90.988281 57.402344 C 91.042969 57.386719 91.105469 57.375 91.160156 57.363281 C 91.570312 57.25 92.289062 57.34375 92.859375 57.234375 C 92.96875 57.210938 93.074219 57.183594 93.171875 57.15625 C 94.859375 57.082031 96.5625 57.074219 98.273438 57.152344 C 100.863281 57.273438 103.472656 57.570312 106.101562 58.03125 C 105.808594 58.125 105.519531 58.226562 105.230469 58.328125 C 104.15625 58.703125 103.148438 59.167969 102.203125 59.769531 C 100.957031 60.5625 99.835938 61.617188 98.890625 63.164062 C 98.4375 63.902344 97.9375 64.785156 97.640625 65.6875 C 97.417969 66.367188 97.3125 67.0625 97.394531 67.730469 C 97.539062 68.890625 98.324219 69.679688 99.335938 70.0625 C 100.277344 70.417969 101.414062 70.398438 102.3125 70.015625 C 103.902344 69.332031 105.101562 68.300781 106.082031 67.078125 C 107.992188 64.683594 109.136719 61.585938 110.65625 58.988281 C 113.714844 59.742188 116.785156 60.703125 119.855469 61.859375 C 120.910156 62.257812 121.964844 62.679688 123.011719 63.121094 Z M 123.011719 63.121094 " fill-opacity="1" fill-rule="evenodd"/></g></g></g></svg>